<?xml version="1.0" encoding="UTF-8" standalone="no"?>
<!-- Created with Inkscape (http://www.inkscape.org/) -->

<svg
   xmlns:dc="http://purl.org/dc/elements/1.1/"
   xmlns:cc="http://creativecommons.org/ns#"
   xmlns:rdf="http://www.w3.org/1999/02/22-rdf-syntax-ns#"
   xmlns:svg="http://www.w3.org/2000/svg"
   xmlns="http://www.w3.org/2000/svg"
   xmlns:sodipodi="http://sodipodi.sourceforge.net/DTD/sodipodi-0.dtd"
   xmlns:inkscape="http://www.inkscape.org/namespaces/inkscape"
   version="1.1"
   id="svg3767"
   width="59.979683"
   height="71.509087"
   viewBox="0 0 59.979683 71.509086"
   sodipodi:docname="6.svg"
   inkscape:version="0.92.1 r15371">
  <metadata
     id="metadata3773">
    <rdf:RDF>
      <cc:Work
         rdf:about="">
        <dc:format>image/svg+xml</dc:format>
        <dc:type
           rdf:resource="http://purl.org/dc/dcmitype/StillImage" />
        <dc:title></dc:title>
      </cc:Work>
    </rdf:RDF>
  </metadata>
  <defs
     id="defs3771" />
  <sodipodi:namedview
     pagecolor="#ffffff"
     bordercolor="#666666"
     borderopacity="1"
     objecttolerance="10"
     gridtolerance="10"
     guidetolerance="10"
     inkscape:pageopacity="0"
     inkscape:pageshadow="2"
     inkscape:window-width="1920"
     inkscape:window-height="1017"
     id="namedview3769"
     showgrid="false"
     inkscape:zoom="11.654321"
     inkscape:cx="26.324194"
     inkscape:cy="33.988879"
     inkscape:window-x="-8"
     inkscape:window-y="-8"
     inkscape:window-maximized="1"
     inkscape:current-layer="svg3767">
    <inkscape:grid
       type="xygrid"
       id="grid6119"
       originx="-30.010158"
       originy="-4.5089435" />
  </sodipodi:namedview>
  <g
     id="g3792"
     style="fill:#01a65e;fill-opacity:0.92462313"
     transform="translate(-30.010158,-4.9819699)">
    <path
       style="fill:#01a65e;fill-opacity:0.92462313"
       d="m 31.162508,74.121597 c -0.735621,-0.466277 -1.185621,-1.921887 -1,-3.234687 C 30.5,68.5 30.5,68.5 60,68.5 c 29.5,0 29.5,0 29.837492,2.38691 0.185621,1.3128 -0.264379,2.76841 -1,3.234687 C 88.101871,74.587875 75.125,74.969374 60,74.969374 c -15.125,0 -28.101871,-0.381499 -28.837492,-0.847777 z M 48.880417,59.044181 C 42.594861,54.880802 39.645773,49.285053 40.202027,42.577366 40.544972,38.441902 41.758878,35.509801 45.973035,28.637923 52.239947,18.41869 53.147405,12.915905 49.25,8.76655 48.0125,7.4490512 47,6.0626006 47,5.6855488 c 0,-1.4341805 4.660823,-0.5624925 8.5,1.589708 4.560374,2.5564953 6.991826,6.7721752 8.503574,14.7435912 1.231536,6.493859 2.405196,8.000953 4.555915,5.850235 1.280087,-1.280087 1.336777,-2.002648 0.330416,-4.211369 -1.683304,-3.694451 -0.382973,-4.469555 2.676445,-1.595382 6.404041,6.016285 9.117948,14.619557 7.303922,23.153941 -0.897062,4.220378 -2.093465,6.257986 -5.944861,10.124768 -5.534399,5.556508 -8.43499,5.504675 -4.179405,-0.07468 3.375167,-4.425073 3.871876,-12.077046 0.972179,-14.976744 -1.709088,-1.709087 -1.770313,-1.685708 -1.5,0.572788 0.161487,1.349251 -0.429598,2.817232 -1.384362,3.438112 C 64.163028,46.037321 62,43.471306 62,38.566117 c 0,-2.833422 -0.659812,-4.89722 -2.038955,-6.377556 -2.702051,-2.900311 -2.931947,-2.7841 -2.292126,1.158654 0.474088,2.921462 -0.04269,4.006875 -4.06287,8.53338 C 50.849654,44.984148 49,48.03114 49,49.46828 c 0,3.864914 1.861068,7.864764 4.781613,10.276753 4.092776,3.380098 0.479964,2.86348 -4.901196,-0.700852 z"
       id="path3802"
       inkscape:connector-curvature="0"
       sodipodi:nodetypes="sssssssssssssssssssssscsssssss" />
    <path
       style="fill:#01a65e;fill-opacity:0.92462313"
       d="m 31.039869,73.548039 c -0.662761,-0.798578 -1.049199,-2.261078 -0.85875,-3.25 C 30.505089,68.615802 32.42644,68.5 60.013695,68.5 89.5,68.5 89.5,68.5 89.837492,70.88691 c 0.185621,1.3128 -0.264379,2.76841 -1,3.234687 -0.735621,0.466278 -13.769892,0.854668 -28.965047,0.86309 -22.94504,0.01272 -27.831791,-0.230776 -28.832576,-1.436648 z M 51.5,60.430599 C 47.142291,58.168832 42.955411,53.97148 41.376839,50.282119 38.760819,44.168083 39.578574,40.17517 45.608266,29.621019 52.472323,17.606427 53.2523,13.641725 49.60469,9.3067866 48.172111,7.6042625 47,5.9387483 47,5.6056441 c 0,-1.2261959 3.486043,-0.5487676 7.717721,1.499753 4.971188,2.4065104 7.259819,6.1890059 9.202363,15.2090419 1.242815,5.770908 3.202913,7.962564 5.27137,5.894107 0.742692,-0.742692 0.721363,-2.019883 -0.07173,-4.29494 C 67.586583,19.515633 68.449029,19.097957 72.01297,22.512429 76.706442,27.009057 79,32.721484 79,39.914595 c 0,7.572278 -1.810116,11.777691 -7.143292,16.595896 -5.057789,4.569408 -6.672163,3.597895 -2.83151,-1.703973 3.611445,-4.985454 3.979064,-10.417641 0.943767,-13.945734 C 67.937931,38.5 67.937931,38.5 68.218965,40.879967 68.381573,42.257026 67.79788,43.707474 66.833823,44.321978 64.114434,46.055354 62,43.455115 62,38.377555 62,33.986382 59.525628,30 56.8,30 c -0.933333,0 -0.933333,0.266667 0,1.2 2.329398,2.329398 1.248116,5.834242 -3.3,10.696546 -6.226326,6.656446 -6.115802,12.387632 0.344203,17.848487 3.079907,2.603547 1.974176,2.926919 -2.344203,0.685566 z"
       id="path3800"
       inkscape:connector-curvature="0"
       sodipodi:nodetypes="ssssssssssssssscsssssssssssss" />
    <path
       style="fill:#01a65e;fill-opacity:0.92462313"
       d="m 31.75,73.919901 c -2.181142,-1.270398 -2.283434,-4.501226 -0.168213,-5.312912 2.064237,-0.792122 54.772189,-0.792122 56.836426,0 C 90.289671,69.325135 90.49411,72.10589 88.8,73.8 87.253991,75.346009 34.389235,75.457115 31.75,73.919901 Z M 50.566071,59.69566 C 44.644562,56.34122 40.793837,50.950517 40.275267,45.289369 39.910674,41.30917 40.378519,39.486292 43.044379,34.5 c 1.764304,-3.3 4.50108,-8.425915 6.081724,-11.390921 3.536699,-6.63422 3.62229,-10.066214 0.348086,-13.9573845 -3.015084,-3.5832237 -1.887644,-4.773281 2.995377,-3.1617387 5.315244,1.7541888 9.0966,6.8238432 10.861758,14.5623322 1.695971,7.435173 2.723365,9.02444 5.215658,8.068057 C 70.246827,27.968053 70.2107,25.800676 68.428298,21.5 c -1.563333,-3.772095 3.784342,0.752762 7.013493,5.934363 5.721662,9.181168 4.351593,22.027818 -3.041499,28.519038 -4.24685,3.728784 -7.940532,4.35488 -4.699569,0.796599 4.684795,-5.143477 5.547842,-10.547958 2.562986,-16.04966 C 68.527418,37.5 68.527418,37.5 68.173476,40.49675 67.401998,47.028695 62,45.445385 62,38.687322 62,34.136559 59.813525,30 57.408112,30 c -1.151852,0 -1.249785,0.427319 -0.443296,1.934259 1.782274,3.330208 1.172009,5.062059 -3.464816,9.832696 -3.943233,4.057028 -4.5,5.1716 -4.5,9.008377 0,3.546021 0.578926,4.95744 3.044872,7.423386 1.674679,1.674679 2.899132,3.190611 2.721007,3.368737 -0.178126,0.178125 -2.06804,-0.664182 -4.199808,-1.871795 z"
       id="path3798"
       inkscape:connector-curvature="0"
       sodipodi:nodetypes="sssssccsssssssssssssssssscc" />
    <path
       style="opacity:0;fill:#01a65e;fill-opacity:0.92462313"
       d="m 30.35674,72.487265 c -0.31927,-0.832004 -0.02505,-2.182004 0.653829,-3 1.842882,-2.220536 56.13598,-2.220536 57.978862,0 0.678876,0.817996 0.973099,2.167996 0.653829,3 -0.874698,2.279428 -58.411822,2.279428 -59.28652,0 z M 49.411303,59.109054 c -6.193139,-3.776539 -10.11216,-11.40275 -9.091594,-17.691764 0.300444,-1.85142 3.042638,-7.986106 6.295297,-13.231862 3.362616,-5.423089 5.293984,-11.488971 5.293984,-13.090919 0,-3.394249 -2.475728,-7.8062226 -3.982987,-8.5798959 -0.701301,-0.3599766 -0.821832,-1.1918409 0.07882,-1.2834745 2.499184,-0.2542711 7.638305,1.5983752 10.85688,5.2641294 2.081539,2.370743 3.395399,5.323122 4.208818,9.457652 1.409756,7.165653 2.945065,9.638813 5.399072,8.697122 1.767261,-0.678161 1.769641,-2.628346 0.0087,-7.150042 -1.435499,-3.68609 6.65347,4.757676 8.621831,9 3.902176,8.410197 1.598868,20.209694 -5.034577,25.79137 -4.119377,3.466227 -7.420131,3.813049 -4.36485,0.45863 4.80238,-5.272574 5.827367,-12.694175 2.332546,-16.889216 C 68.066539,37.5 68.066539,37.5 68.033269,40.75 68.004766,43.534405 67.644579,44 65.519052,44 62.926673,44 62.260072,42.522188 62.222433,36.691617 62.202775,33.646326 59.52585,30 57.309829,30 c -1.078847,0 -1.142081,0.444924 -0.289614,2.037773 1.519492,2.839196 0.455807,5.413654 -4.100596,9.924747 C 49.477161,45.370746 49,46.409886 49,50.498504 c 0,3.812045 0.529504,5.184846 2.923077,7.578419 3.320155,3.320155 2.077637,3.830727 -2.511774,1.032131 z"
       id="path3796"
       inkscape:connector-curvature="0"
       sodipodi:nodetypes="scsssssssssssscssscsssssssss" />
    <path
       style="fill:#01a65e;fill-opacity:0.92462313"
       d="M 30.306135,72.355392 C 28.818802,68.479464 32.087655,68 60,68 87.912345,68 91.181198,68.479464 89.693865,72.355392 89.12826,73.829334 86.046834,74 60,74 33.953166,74 30.87174,73.829334 30.306135,72.355392 Z M 48.834333,58.533395 C 44.372634,55.501592 41.289317,50.681984 40.46675,45.453823 39.823037,41.362439 39.874205,41.236557 49.357642,23.580522 52.591839,17.559173 52.778534,12.259464 49.885996,8.5821964 47.109874,5.0529291 47.852614,4.5571013 52.8939,6.574224 c 6.385236,2.5548648 8.593098,6.31998 11.537867,19.675776 0.416295,1.888077 1.237055,2.75 2.61867,2.75 2.659383,0 3.400619,-2.230635 2.072706,-6.237487 -1.059862,-3.198031 -0.993058,-3.167108 3.380031,1.564594 9.333579,10.098975 8.518547,24.575166 -1.842476,32.725148 -3.707618,2.916413 -4.188224,2.051326 -1.148975,-2.068145 3.191689,-4.326091 3.443105,-11.616406 0.521546,-15.123326 C 68.066539,37.5 68.066539,37.5 68.033269,40.75 68.005098,43.501984 67.633305,44 65.606989,44 c -2.786493,0 -3.77609,-1.904497 -3.001645,-5.776719 0.384245,-1.921227 -0.09985,-3.58222 -1.599768,-5.489063 C 58.704017,29.80826 55.344693,28.909381 56.393011,31.5 c 0.333844,0.825 0.871374,2.152172 1.194512,2.949272 0.357829,0.882676 -1.205982,3.366673 -4,6.353705 C 49.645605,45.017206 49,46.297909 49,49.903365 c 0,4.419768 2.086926,9.5655 4.22896,10.427341 0.699072,0.28127 0.813001,0.546926 0.253175,0.590347 -0.559827,0.04342 -2.651337,-1.031025 -4.647802,-2.387658 z"
       id="path3794"
       inkscape:connector-curvature="0"
       sodipodi:nodetypes="sssssssssssssssssssscssssscs" />
  </g>
  <path
     style="opacity:0;fill:#01a65e;fill-opacity:0.92462313;stroke-width:0.12134671"
     d="m 21.908516,55.317089 c -4.226669,-2.057162 -7.638383,-5.351069 -9.588064,-9.256985 -1.349044,-2.702624 -2.220071,-6.292048 -2.024183,-8.341469 0.194013,-2.029783 1.752213,-5.446543 6.557758,-14.379585 2.95038,-5.484471 3.581022,-6.778374 4.183792,-8.583983 0.610015,-1.827309 0.850924,-3.233591 0.850924,-4.9671869 0,-2.700209 -0.598167,-4.399333 -2.363533,-6.7137317 -0.757426,-0.9929888 -1.155522,-1.7353937 -1.155522,-2.15492381 0,-0.3094369 0.05766,-0.3867227 0.333703,-0.4472762 1.084826,-0.2379706 6.035361,1.75484231 7.934693,3.19407021 1.003089,0.7600958 2.185286,2.0315705 2.862999,3.0792075 1.675062,2.589379 3.180618,6.9592769 4.650962,13.4994819 0.459022,2.041768 0.841761,2.893929 1.511042,3.364319 0.573595,0.403138 1.468776,0.545932 2.194757,0.350098 2.102027,-0.567024 2.441842,-2.575046 1.130029,-6.677526 -0.201001,-0.6286 -0.348995,-1.283873 -0.328876,-1.456161 0.03445,-0.294985 0.09553,-0.256642 1.047524,0.657522 1.430001,1.373178 3.570774,3.76013 4.583444,5.110518 4.48798,5.984689 5.806859,13.534353 3.558914,20.372292 -0.494204,1.503302 -1.775894,4.016534 -2.753837,5.399929 -1.566191,2.215529 -5.004445,5.384414 -6.683356,6.159749 -1.318236,0.608773 -1.148364,-0.134653 0.644611,-2.82107 1.393081,-2.087257 1.820107,-2.906032 2.287177,-4.385416 0.579556,-1.83567 0.720901,-2.94165 0.657148,-5.141945 -0.06552,-2.261359 -0.283855,-3.314962 -0.990207,-4.778411 -0.423944,-0.878345 -2.095958,-3.02233 -2.468484,-3.165281 -0.381443,-0.146374 -0.513854,0.26954 -0.517822,1.626519 -0.0045,1.550413 -0.169945,2.919428 -0.408472,3.380688 -0.232557,0.449717 -0.68884,0.648057 -1.659772,0.72148 -2.015467,0.152413 -3.24869,-0.793513 -3.518515,-2.698825 -0.100308,-0.708302 -0.0691,-1.166547 0.235605,-3.459094 0.279419,-2.102318 -0.666781,-4.245501 -2.733611,-6.191744 -1.890634,-1.780325 -3.986004,-2.206809 -3.760717,-0.765441 0.03304,0.21136 0.37384,1.160993 0.757342,2.110295 0.681209,1.686232 0.693889,1.738895 0.5503,2.285338 -0.32152,1.223574 -1.535098,2.904172 -4.32629,5.99117 -3.733223,4.128865 -4.283732,5.347776 -4.146848,9.181752 0.07387,2.06901 0.250505,3.06288 0.882662,4.96646 0.827629,2.492194 2.026297,4.333974 3.21152,4.934572 0.752742,0.381444 0.85022,0.543474 0.326955,0.543474 -0.238869,0 -0.876458,-0.226861 -1.525752,-0.54288 z"
     id="path4623"
     inkscape:connector-curvature="0"
     sodipodi:nodetypes="cssssssssssscsccssssssscscccsscscsssssssc" />
  <path
     style="opacity:0;fill:#01a65e;fill-opacity:0.92462313;stroke-width:0.12134671"
     d="m 21.908516,55.317089 c -4.226669,-2.057162 -7.638383,-5.351069 -9.588064,-9.256985 -1.349044,-2.702624 -2.220071,-6.292048 -2.024183,-8.341469 0.194013,-2.029783 1.752213,-5.446543 6.557758,-14.379585 2.95038,-5.484471 3.581022,-6.778374 4.183792,-8.583983 0.610015,-1.827309 0.850924,-3.233591 0.850924,-4.9671869 0,-2.700209 -0.598167,-4.399333 -2.363533,-6.7137317 -0.757426,-0.9929888 -1.155522,-1.7353937 -1.155522,-2.15492381 0,-0.3094369 0.05766,-0.3867227 0.333703,-0.4472762 1.084826,-0.2379706 6.035361,1.75484231 7.934693,3.19407021 1.003089,0.7600958 2.185286,2.0315705 2.862999,3.0792075 1.675062,2.589379 3.180618,6.9592769 4.650962,13.4994819 0.459022,2.041768 0.841761,2.893929 1.511042,3.364319 0.573595,0.403138 1.468776,0.545932 2.194757,0.350098 2.102027,-0.567024 2.441842,-2.575046 1.130029,-6.677526 -0.201001,-0.6286 -0.348995,-1.283873 -0.328876,-1.456161 0.03445,-0.294985 0.09553,-0.256642 1.047524,0.657522 1.430001,1.373178 3.570774,3.76013 4.583444,5.110518 4.48798,5.984689 5.806859,13.534353 3.558914,20.372292 -0.494204,1.503302 -1.775894,4.016534 -2.753837,5.399929 -1.566191,2.215529 -5.004445,5.384414 -6.683356,6.159749 -1.318236,0.608773 -1.148364,-0.134653 0.644611,-2.82107 1.393081,-2.087257 1.820107,-2.906032 2.287177,-4.385416 0.579556,-1.83567 0.720901,-2.94165 0.657148,-5.141945 -0.06552,-2.261359 -0.283855,-3.314962 -0.990207,-4.778411 -0.423944,-0.878345 -2.095958,-3.02233 -2.468484,-3.165281 -0.381443,-0.146374 -0.513854,0.26954 -0.517822,1.626519 -0.0045,1.550413 -0.169945,2.919428 -0.408472,3.380688 -0.232557,0.449717 -0.68884,0.648057 -1.659772,0.72148 -2.015467,0.152413 -3.24869,-0.793513 -3.518515,-2.698825 -0.100308,-0.708302 -0.0691,-1.166547 0.235605,-3.459094 0.279419,-2.102318 -0.666781,-4.245501 -2.733611,-6.191744 -1.890634,-1.780325 -3.986004,-2.206809 -3.760717,-0.765441 0.03304,0.21136 0.37384,1.160993 0.757342,2.110295 0.681209,1.686232 0.693889,1.738895 0.5503,2.285338 -0.32152,1.223574 -1.535098,2.904172 -4.32629,5.99117 -3.733223,4.128865 -4.283732,5.347776 -4.146848,9.181752 0.07387,2.06901 0.250505,3.06288 0.882662,4.96646 0.827629,2.492194 2.026297,4.333974 3.21152,4.934572 0.752742,0.381444 0.85022,0.543474 0.326955,0.543474 -0.238869,0 -0.876458,-0.226861 -1.525752,-0.54288 z"
     id="path4625"
     inkscape:connector-curvature="0"
     sodipodi:nodetypes="cssssssssssscsccssssssscscccsscscsssssssc" />
  <path
     style="opacity:0;fill:#01a65e;fill-opacity:0.92462313;stroke-width:0.12134671"
     d="m 21.908516,55.317089 c -4.226669,-2.057162 -7.638383,-5.351069 -9.588064,-9.256985 -1.349044,-2.702624 -2.220071,-6.292048 -2.024183,-8.341469 0.194013,-2.029783 1.752213,-5.446543 6.557758,-14.379585 2.95038,-5.484471 3.581022,-6.778374 4.183792,-8.583983 0.610015,-1.827309 0.850924,-3.233591 0.850924,-4.9671869 0,-2.700209 -0.598167,-4.399333 -2.363533,-6.7137317 -0.757426,-0.9929888 -1.155522,-1.7353937 -1.155522,-2.15492381 0,-0.3094369 0.05766,-0.3867227 0.333703,-0.4472762 1.084826,-0.2379706 6.035361,1.75484231 7.934693,3.19407021 1.003089,0.7600958 2.185286,2.0315705 2.862999,3.0792075 1.675062,2.589379 3.180618,6.9592769 4.650962,13.4994819 0.459022,2.041768 0.841761,2.893929 1.511042,3.364319 0.573595,0.403138 1.468776,0.545932 2.194757,0.350098 2.102027,-0.567024 2.441842,-2.575046 1.130029,-6.677526 -0.201001,-0.6286 -0.348995,-1.283873 -0.328876,-1.456161 0.03445,-0.294985 0.09553,-0.256642 1.047524,0.657522 1.430001,1.373178 3.570774,3.76013 4.583444,5.110518 4.48798,5.984689 5.806859,13.534353 3.558914,20.372292 -0.494204,1.503302 -1.775894,4.016534 -2.753837,5.399929 -1.566191,2.215529 -5.004445,5.384414 -6.683356,6.159749 -1.318236,0.608773 -1.148364,-0.134653 0.644611,-2.82107 1.393081,-2.087257 1.820107,-2.906032 2.287177,-4.385416 0.579556,-1.83567 0.720901,-2.94165 0.657148,-5.141945 -0.06552,-2.261359 -0.283855,-3.314962 -0.990207,-4.778411 -0.423944,-0.878345 -2.095958,-3.02233 -2.468484,-3.165281 -0.381443,-0.146374 -0.513854,0.26954 -0.517822,1.626519 -0.0045,1.550413 -0.169945,2.919428 -0.408472,3.380688 -0.232557,0.449717 -0.68884,0.648057 -1.659772,0.72148 -2.015467,0.152413 -3.24869,-0.793513 -3.518515,-2.698825 -0.100308,-0.708302 -0.0691,-1.166547 0.235605,-3.459094 0.279419,-2.102318 -0.666781,-4.245501 -2.733611,-6.191744 -1.890634,-1.780325 -3.986004,-2.206809 -3.760717,-0.765441 0.03304,0.21136 0.37384,1.160993 0.757342,2.110295 0.681209,1.686232 0.693889,1.738895 0.5503,2.285338 -0.32152,1.223574 -1.535098,2.904172 -4.32629,5.99117 -3.733223,4.128865 -4.283732,5.347776 -4.146848,9.181752 0.07387,2.06901 0.250505,3.06288 0.882662,4.96646 0.827629,2.492194 2.026297,4.333974 3.21152,4.934572 0.752742,0.381444 0.85022,0.543474 0.326955,0.543474 -0.238869,0 -0.876458,-0.226861 -1.525752,-0.54288 z"
     id="path4627"
     inkscape:connector-curvature="0"
     sodipodi:nodetypes="cssssssssssscsccssssssscscccsscscsssssssc" />
  <path
     style="opacity:0;fill:#01a65e;fill-opacity:0.92462313;stroke-width:0.12134671"
     d="m 21.908516,55.317089 c -4.226669,-2.057162 -7.638383,-5.351069 -9.588064,-9.256985 -1.349044,-2.702624 -2.220071,-6.292048 -2.024183,-8.341469 0.194013,-2.029783 1.752213,-5.446543 6.557758,-14.379585 2.95038,-5.484471 3.581022,-6.778374 4.183792,-8.583983 0.610015,-1.827309 0.850924,-3.233591 0.850924,-4.9671869 0,-2.700209 -0.598167,-4.399333 -2.363533,-6.7137317 -0.757426,-0.9929888 -1.155522,-1.7353937 -1.155522,-2.15492381 0,-0.3094369 0.05766,-0.3867227 0.333703,-0.4472762 1.084826,-0.2379706 6.035361,1.75484231 7.934693,3.19407021 1.003089,0.7600958 2.185286,2.0315705 2.862999,3.0792075 1.675062,2.589379 3.180618,6.9592769 4.650962,13.4994819 0.459022,2.041768 0.841761,2.893929 1.511042,3.364319 0.573595,0.403138 1.468776,0.545932 2.194757,0.350098 2.102027,-0.567024 2.441842,-2.575046 1.130029,-6.677526 -0.201001,-0.6286 -0.348995,-1.283873 -0.328876,-1.456161 0.03445,-0.294985 0.09553,-0.256642 1.047524,0.657522 1.430001,1.373178 3.570774,3.76013 4.583444,5.110518 4.48798,5.984689 5.806859,13.534353 3.558914,20.372292 -0.494204,1.503302 -1.775894,4.016534 -2.753837,5.399929 -1.566191,2.215529 -5.004445,5.384414 -6.683356,6.159749 -1.318236,0.608773 -1.148364,-0.134653 0.644611,-2.82107 1.393081,-2.087257 1.820107,-2.906032 2.287177,-4.385416 0.579556,-1.83567 0.720901,-2.94165 0.657148,-5.141945 -0.06552,-2.261359 -0.283855,-3.314962 -0.990207,-4.778411 -0.423944,-0.878345 -2.095958,-3.02233 -2.468484,-3.165281 -0.381443,-0.146374 -0.513854,0.26954 -0.517822,1.626519 -0.0045,1.550413 -0.169945,2.919428 -0.408472,3.380688 -0.232557,0.449717 -0.68884,0.648057 -1.659772,0.72148 -2.015467,0.152413 -3.24869,-0.793513 -3.518515,-2.698825 -0.100308,-0.708302 -0.0691,-1.166547 0.235605,-3.459094 0.279419,-2.102318 -0.666781,-4.245501 -2.733611,-6.191744 -1.890634,-1.780325 -3.986004,-2.206809 -3.760717,-0.765441 0.03304,0.21136 0.37384,1.160993 0.757342,2.110295 0.681209,1.686232 0.693889,1.738895 0.5503,2.285338 -0.32152,1.223574 -1.535098,2.904172 -4.32629,5.99117 -3.733223,4.128865 -4.283732,5.347776 -4.146848,9.181752 0.07387,2.06901 0.250505,3.06288 0.882662,4.96646 0.827629,2.492194 2.026297,4.333974 3.21152,4.934572 0.752742,0.381444 0.85022,0.543474 0.326955,0.543474 -0.238869,0 -0.876458,-0.226861 -1.525752,-0.54288 z"
     id="path4629"
     inkscape:connector-curvature="0"
     sodipodi:nodetypes="cssssssssssscsccssssssscscccsscscsssssssc" />
  <path
     style="opacity:0;fill:#01a65e;fill-opacity:0.92462313;stroke-width:0.12134671"
     d="m 21.908516,55.317089 c -4.226669,-2.057162 -7.638383,-5.351069 -9.588064,-9.256985 -1.349044,-2.702624 -2.220071,-6.292048 -2.024183,-8.341469 0.194013,-2.029783 1.752213,-5.446543 6.557758,-14.379585 2.95038,-5.484471 3.581022,-6.778374 4.183792,-8.583983 0.610015,-1.827309 0.850924,-3.233591 0.850924,-4.9671869 0,-2.700209 -0.598167,-4.399333 -2.363533,-6.7137317 -0.757426,-0.9929888 -1.155522,-1.7353937 -1.155522,-2.15492381 0,-0.3094369 0.05766,-0.3867227 0.333703,-0.4472762 1.084826,-0.2379706 6.035361,1.75484231 7.934693,3.19407021 1.003089,0.7600958 2.185286,2.0315705 2.862999,3.0792075 1.675062,2.589379 3.180618,6.9592769 4.650962,13.4994819 0.459022,2.041768 0.841761,2.893929 1.511042,3.364319 0.573595,0.403138 1.468776,0.545932 2.194757,0.350098 2.102027,-0.567024 2.441842,-2.575046 1.130029,-6.677526 -0.201001,-0.6286 -0.348995,-1.283873 -0.328876,-1.456161 0.03445,-0.294985 0.09553,-0.256642 1.047524,0.657522 1.430001,1.373178 3.570774,3.76013 4.583444,5.110518 4.48798,5.984689 5.806859,13.534353 3.558914,20.372292 -0.494204,1.503302 -1.775894,4.016534 -2.753837,5.399929 -1.566191,2.215529 -5.004445,5.384414 -6.683356,6.159749 -1.318236,0.608773 -1.148364,-0.134653 0.644611,-2.82107 1.393081,-2.087257 1.820107,-2.906032 2.287177,-4.385416 0.579556,-1.83567 0.720901,-2.94165 0.657148,-5.141945 -0.06552,-2.261359 -0.283855,-3.314962 -0.990207,-4.778411 -0.423944,-0.878345 -2.095958,-3.02233 -2.468484,-3.165281 -0.381443,-0.146374 -0.513854,0.26954 -0.517822,1.626519 -0.0045,1.550413 -0.169945,2.919428 -0.408472,3.380688 -0.232557,0.449717 -0.68884,0.648057 -1.659772,0.72148 -2.015467,0.152413 -3.24869,-0.793513 -3.518515,-2.698825 -0.100308,-0.708302 -0.0691,-1.166547 0.235605,-3.459094 0.279419,-2.102318 -0.666781,-4.245501 -2.733611,-6.191744 -1.890634,-1.780325 -3.986004,-2.206809 -3.760717,-0.765441 0.03304,0.21136 0.37384,1.160993 0.757342,2.110295 0.681209,1.686232 0.693889,1.738895 0.5503,2.285338 -0.32152,1.223574 -1.535098,2.904172 -4.32629,5.99117 -3.733223,4.128865 -4.283732,5.347776 -4.146848,9.181752 0.07387,2.06901 0.250505,3.06288 0.882662,4.96646 0.827629,2.492194 2.026297,4.333974 3.21152,4.934572 0.752742,0.381444 0.85022,0.543474 0.326955,0.543474 -0.238869,0 -0.876458,-0.226861 -1.525752,-0.54288 z"
     id="path4631"
     inkscape:connector-curvature="0"
     sodipodi:nodetypes="cssssssssssscsccssssssscscccsscscsssssssc" />
  <path
     style="opacity:0;fill:#01a65e;fill-opacity:0.92462313;stroke-width:0.12134671"
     d="m 21.908516,55.317089 c -4.226669,-2.057162 -7.638383,-5.351069 -9.588064,-9.256985 -1.349044,-2.702624 -2.220071,-6.292048 -2.024183,-8.341469 0.194013,-2.029783 1.752213,-5.446543 6.557758,-14.379585 2.95038,-5.484471 3.581022,-6.778374 4.183792,-8.583983 0.610015,-1.827309 0.850924,-3.233591 0.850924,-4.9671869 0,-2.700209 -0.598167,-4.399333 -2.363533,-6.7137317 -0.757426,-0.9929888 -1.155522,-1.7353937 -1.155522,-2.15492381 0,-0.3094369 0.05766,-0.3867227 0.333703,-0.4472762 1.084826,-0.2379706 6.035361,1.75484231 7.934693,3.19407021 1.003089,0.7600958 2.185286,2.0315705 2.862999,3.0792075 1.675062,2.589379 3.180618,6.9592769 4.650962,13.4994819 0.459022,2.041768 0.841761,2.893929 1.511042,3.364319 0.573595,0.403138 1.468776,0.545932 2.194757,0.350098 2.102027,-0.567024 2.441842,-2.575046 1.130029,-6.677526 -0.201001,-0.6286 -0.348995,-1.283873 -0.328876,-1.456161 0.03445,-0.294985 0.09553,-0.256642 1.047524,0.657522 1.430001,1.373178 3.570774,3.76013 4.583444,5.110518 4.48798,5.984689 5.806859,13.534353 3.558914,20.372292 -0.494204,1.503302 -1.775894,4.016534 -2.753837,5.399929 -1.566191,2.215529 -5.004445,5.384414 -6.683356,6.159749 -1.318236,0.608773 -1.148364,-0.134653 0.644611,-2.82107 1.393081,-2.087257 1.820107,-2.906032 2.287177,-4.385416 0.579556,-1.83567 0.720901,-2.94165 0.657148,-5.141945 -0.06552,-2.261359 -0.283855,-3.314962 -0.990207,-4.778411 -0.423944,-0.878345 -2.095958,-3.02233 -2.468484,-3.165281 -0.381443,-0.146374 -0.513854,0.26954 -0.517822,1.626519 -0.0045,1.550413 -0.169945,2.919428 -0.408472,3.380688 -0.232557,0.449717 -0.68884,0.648057 -1.659772,0.72148 -2.015467,0.152413 -3.24869,-0.793513 -3.518515,-2.698825 -0.100308,-0.708302 -0.0691,-1.166547 0.235605,-3.459094 0.279419,-2.102318 -0.666781,-4.245501 -2.733611,-6.191744 -1.890634,-1.780325 -3.986004,-2.206809 -3.760717,-0.765441 0.03304,0.21136 0.37384,1.160993 0.757342,2.110295 0.681209,1.686232 0.693889,1.738895 0.5503,2.285338 -0.32152,1.223574 -1.535098,2.904172 -4.32629,5.99117 -3.733223,4.128865 -4.283732,5.347776 -4.146848,9.181752 0.07387,2.06901 0.250505,3.06288 0.882662,4.96646 0.827629,2.492194 2.026297,4.333974 3.21152,4.934572 0.752742,0.381444 0.85022,0.543474 0.326955,0.543474 -0.238869,0 -0.876458,-0.226861 -1.525752,-0.54288 z"
     id="path4633"
     inkscape:connector-curvature="0"
     sodipodi:nodetypes="cssssssssssscsccssssssscscccsscscsssssssc" />
  <path
     style="opacity:0;fill:#01a65e;fill-opacity:0.92462313;stroke-width:0.12134671"
     d="m 21.908516,55.317089 c -4.226669,-2.057162 -7.638383,-5.351069 -9.588064,-9.256985 -1.349044,-2.702624 -2.220071,-6.292048 -2.024183,-8.341469 0.194013,-2.029783 1.752213,-5.446543 6.557758,-14.379585 2.95038,-5.484471 3.581022,-6.778374 4.183792,-8.583983 0.610015,-1.827309 0.850924,-3.233591 0.850924,-4.9671869 0,-2.700209 -0.598167,-4.399333 -2.363533,-6.7137317 -0.757426,-0.9929888 -1.155522,-1.7353937 -1.155522,-2.15492381 0,-0.3094369 0.05766,-0.3867227 0.333703,-0.4472762 1.084826,-0.2379706 6.035361,1.75484231 7.934693,3.19407021 1.003089,0.7600958 2.185286,2.0315705 2.862999,3.0792075 1.675062,2.589379 3.180618,6.9592769 4.650962,13.4994819 0.459022,2.041768 0.841761,2.893929 1.511042,3.364319 0.573595,0.403138 1.468776,0.545932 2.194757,0.350098 2.102027,-0.567024 2.441842,-2.575046 1.130029,-6.677526 -0.201001,-0.6286 -0.348995,-1.283873 -0.328876,-1.456161 0.03445,-0.294985 0.09553,-0.256642 1.047524,0.657522 1.430001,1.373178 3.570774,3.76013 4.583444,5.110518 4.48798,5.984689 5.806859,13.534353 3.558914,20.372292 -0.494204,1.503302 -1.775894,4.016534 -2.753837,5.399929 -1.566191,2.215529 -5.004445,5.384414 -6.683356,6.159749 -1.318236,0.608773 -1.148364,-0.134653 0.644611,-2.82107 1.393081,-2.087257 1.820107,-2.906032 2.287177,-4.385416 0.579556,-1.83567 0.720901,-2.94165 0.657148,-5.141945 -0.06552,-2.261359 -0.283855,-3.314962 -0.990207,-4.778411 -0.423944,-0.878345 -2.095958,-3.02233 -2.468484,-3.165281 -0.381443,-0.146374 -0.513854,0.26954 -0.517822,1.626519 -0.0045,1.550413 -0.169945,2.919428 -0.408472,3.380688 -0.232557,0.449717 -0.68884,0.648057 -1.659772,0.72148 -2.015467,0.152413 -3.24869,-0.793513 -3.518515,-2.698825 -0.100308,-0.708302 -0.0691,-1.166547 0.235605,-3.459094 0.279419,-2.102318 -0.666781,-4.245501 -2.733611,-6.191744 -1.890634,-1.780325 -3.986004,-2.206809 -3.760717,-0.765441 0.03304,0.21136 0.37384,1.160993 0.757342,2.110295 0.681209,1.686232 0.693889,1.738895 0.5503,2.285338 -0.32152,1.223574 -1.535098,2.904172 -4.32629,5.99117 -3.733223,4.128865 -4.283732,5.347776 -4.146848,9.181752 0.07387,2.06901 0.250505,3.06288 0.882662,4.96646 0.827629,2.492194 2.026297,4.333974 3.21152,4.934572 0.752742,0.381444 0.85022,0.543474 0.326955,0.543474 -0.238869,0 -0.876458,-0.226861 -1.525752,-0.54288 z"
     id="path4635"
     inkscape:connector-curvature="0"
     sodipodi:nodetypes="cssssssssssscsccssssssscscccsscscsssssssc" />
  <path
     style="opacity:0;fill:#01a65e;fill-opacity:0.92462313;stroke-width:0.12134671"
     d="m 21.908516,55.317089 c -4.226669,-2.057162 -7.638383,-5.351069 -9.588064,-9.256985 -1.349044,-2.702624 -2.220071,-6.292048 -2.024183,-8.341469 0.194013,-2.029783 1.752213,-5.446543 6.557758,-14.379585 2.95038,-5.484471 3.581022,-6.778374 4.183792,-8.583983 0.610015,-1.827309 0.850924,-3.233591 0.850924,-4.9671869 0,-2.700209 -0.598167,-4.399333 -2.363533,-6.7137317 -0.757426,-0.9929888 -1.155522,-1.7353937 -1.155522,-2.15492381 0,-0.3094369 0.05766,-0.3867227 0.333703,-0.4472762 1.084826,-0.2379706 6.035361,1.75484231 7.934693,3.19407021 1.003089,0.7600958 2.185286,2.0315705 2.862999,3.0792075 1.675062,2.589379 3.180618,6.9592769 4.650962,13.4994819 0.459022,2.041768 0.841761,2.893929 1.511042,3.364319 0.573595,0.403138 1.468776,0.545932 2.194757,0.350098 2.102027,-0.567024 2.441842,-2.575046 1.130029,-6.677526 -0.201001,-0.6286 -0.348995,-1.283873 -0.328876,-1.456161 0.03445,-0.294985 0.09553,-0.256642 1.047524,0.657522 1.430001,1.373178 3.570774,3.76013 4.583444,5.110518 4.48798,5.984689 5.806859,13.534353 3.558914,20.372292 -0.494204,1.503302 -1.775894,4.016534 -2.753837,5.399929 -1.566191,2.215529 -5.004445,5.384414 -6.683356,6.159749 -1.318236,0.608773 -1.148364,-0.134653 0.644611,-2.82107 1.393081,-2.087257 1.820107,-2.906032 2.287177,-4.385416 0.579556,-1.83567 0.720901,-2.94165 0.657148,-5.141945 -0.06552,-2.261359 -0.283855,-3.314962 -0.990207,-4.778411 -0.423944,-0.878345 -2.095958,-3.02233 -2.468484,-3.165281 -0.381443,-0.146374 -0.513854,0.26954 -0.517822,1.626519 -0.0045,1.550413 -0.169945,2.919428 -0.408472,3.380688 -0.232557,0.449717 -0.68884,0.648057 -1.659772,0.72148 -2.015467,0.152413 -3.24869,-0.793513 -3.518515,-2.698825 -0.100308,-0.708302 -0.0691,-1.166547 0.235605,-3.459094 0.279419,-2.102318 -0.666781,-4.245501 -2.733611,-6.191744 -1.890634,-1.780325 -3.986004,-2.206809 -3.760717,-0.765441 0.03304,0.21136 0.37384,1.160993 0.757342,2.110295 0.681209,1.686232 0.693889,1.738895 0.5503,2.285338 -0.32152,1.223574 -1.535098,2.904172 -4.32629,5.99117 -3.733223,4.128865 -4.283732,5.347776 -4.146848,9.181752 0.07387,2.06901 0.250505,3.06288 0.882662,4.96646 0.827629,2.492194 2.026297,4.333974 3.21152,4.934572 0.752742,0.381444 0.85022,0.543474 0.326955,0.543474 -0.238869,0 -0.876458,-0.226861 -1.525752,-0.54288 z"
     id="path4637"
     inkscape:connector-curvature="0"
     sodipodi:nodetypes="cssssssssssscsccssssssscscccsscscsssssssc" />
  <path
     style="opacity:0;fill:#01a65e;fill-opacity:0.92462313;stroke-width:0.12134671"
     d="m 21.908516,55.317089 c -4.226669,-2.057162 -7.638383,-5.351069 -9.588064,-9.256985 -1.349044,-2.702624 -2.220071,-6.292048 -2.024183,-8.341469 0.194013,-2.029783 1.752213,-5.446543 6.557758,-14.379585 2.95038,-5.484471 3.581022,-6.778374 4.183792,-8.583983 0.610015,-1.827309 0.850924,-3.233591 0.850924,-4.9671869 0,-2.700209 -0.598167,-4.399333 -2.363533,-6.7137317 -0.757426,-0.9929888 -1.155522,-1.7353937 -1.155522,-2.15492381 0,-0.3094369 0.05766,-0.3867227 0.333703,-0.4472762 1.084826,-0.2379706 6.035361,1.75484231 7.934693,3.19407021 1.003089,0.7600958 2.185286,2.0315705 2.862999,3.0792075 1.675062,2.589379 3.180618,6.9592769 4.650962,13.4994819 0.459022,2.041768 0.841761,2.893929 1.511042,3.364319 0.573595,0.403138 1.468776,0.545932 2.194757,0.350098 2.102027,-0.567024 2.441842,-2.575046 1.130029,-6.677526 -0.201001,-0.6286 -0.348995,-1.283873 -0.328876,-1.456161 0.03445,-0.294985 0.09553,-0.256642 1.047524,0.657522 1.430001,1.373178 3.570774,3.76013 4.583444,5.110518 4.48798,5.984689 5.806859,13.534353 3.558914,20.372292 -0.494204,1.503302 -1.775894,4.016534 -2.753837,5.399929 -1.566191,2.215529 -5.004445,5.384414 -6.683356,6.159749 -1.318236,0.608773 -1.148364,-0.134653 0.644611,-2.82107 1.393081,-2.087257 1.820107,-2.906032 2.287177,-4.385416 0.579556,-1.83567 0.720901,-2.94165 0.657148,-5.141945 -0.06552,-2.261359 -0.283855,-3.314962 -0.990207,-4.778411 -0.423944,-0.878345 -2.095958,-3.02233 -2.468484,-3.165281 -0.381443,-0.146374 -0.513854,0.26954 -0.517822,1.626519 -0.0045,1.550413 -0.169945,2.919428 -0.408472,3.380688 -0.232557,0.449717 -0.68884,0.648057 -1.659772,0.72148 -2.015467,0.152413 -3.24869,-0.793513 -3.518515,-2.698825 -0.100308,-0.708302 -0.0691,-1.166547 0.235605,-3.459094 0.279419,-2.102318 -0.666781,-4.245501 -2.733611,-6.191744 -1.890634,-1.780325 -3.986004,-2.206809 -3.760717,-0.765441 0.03304,0.21136 0.37384,1.160993 0.757342,2.110295 0.681209,1.686232 0.693889,1.738895 0.5503,2.285338 -0.32152,1.223574 -1.535098,2.904172 -4.32629,5.99117 -3.733223,4.128865 -4.283732,5.347776 -4.146848,9.181752 0.07387,2.06901 0.250505,3.06288 0.882662,4.96646 0.827629,2.492194 2.026297,4.333974 3.21152,4.934572 0.752742,0.381444 0.85022,0.543474 0.326955,0.543474 -0.238869,0 -0.876458,-0.226861 -1.525752,-0.54288 z"
     id="path4639"
     inkscape:connector-curvature="0"
     sodipodi:nodetypes="cssssssssssscsccssssssscscccsscscsssssssc" />
  <path
     style="opacity:0;fill:#01a65e;fill-opacity:0.92462313;stroke-width:0.12134671"
     d="m 21.908516,55.317089 c -4.226669,-2.057162 -7.638383,-5.351069 -9.588064,-9.256985 -1.349044,-2.702624 -2.220071,-6.292048 -2.024183,-8.341469 0.194013,-2.029783 1.752213,-5.446543 6.557758,-14.379585 2.95038,-5.484471 3.581022,-6.778374 4.183792,-8.583983 0.610015,-1.827309 0.850924,-3.233591 0.850924,-4.9671869 0,-2.700209 -0.598167,-4.399333 -2.363533,-6.7137317 -0.757426,-0.9929888 -1.155522,-1.7353937 -1.155522,-2.15492381 0,-0.3094369 0.05766,-0.3867227 0.333703,-0.4472762 1.084826,-0.2379706 6.035361,1.75484231 7.934693,3.19407021 1.003089,0.7600958 2.185286,2.0315705 2.862999,3.0792075 1.675062,2.589379 3.180618,6.9592769 4.650962,13.4994819 0.459022,2.041768 0.841761,2.893929 1.511042,3.364319 0.573595,0.403138 1.468776,0.545932 2.194757,0.350098 2.102027,-0.567024 2.441842,-2.575046 1.130029,-6.677526 -0.201001,-0.6286 -0.348995,-1.283873 -0.328876,-1.456161 0.03445,-0.294985 0.09553,-0.256642 1.047524,0.657522 1.430001,1.373178 3.570774,3.76013 4.583444,5.110518 4.48798,5.984689 5.806859,13.534353 3.558914,20.372292 -0.494204,1.503302 -1.775894,4.016534 -2.753837,5.399929 -1.566191,2.215529 -5.004445,5.384414 -6.683356,6.159749 -1.318236,0.608773 -1.148364,-0.134653 0.644611,-2.82107 1.393081,-2.087257 1.820107,-2.906032 2.287177,-4.385416 0.579556,-1.83567 0.720901,-2.94165 0.657148,-5.141945 -0.06552,-2.261359 -0.283855,-3.314962 -0.990207,-4.778411 -0.423944,-0.878345 -2.095958,-3.02233 -2.468484,-3.165281 -0.381443,-0.146374 -0.513854,0.26954 -0.517822,1.626519 -0.0045,1.550413 -0.169945,2.919428 -0.408472,3.380688 -0.232557,0.449717 -0.68884,0.648057 -1.659772,0.72148 -2.015467,0.152413 -3.24869,-0.793513 -3.518515,-2.698825 -0.100308,-0.708302 -0.0691,-1.166547 0.235605,-3.459094 0.279419,-2.102318 -0.666781,-4.245501 -2.733611,-6.191744 -1.890634,-1.780325 -3.986004,-2.206809 -3.760717,-0.765441 0.03304,0.21136 0.37384,1.160993 0.757342,2.110295 0.681209,1.686232 0.693889,1.738895 0.5503,2.285338 -0.32152,1.223574 -1.535098,2.904172 -4.32629,5.99117 -3.733223,4.128865 -4.283732,5.347776 -4.146848,9.181752 0.07387,2.06901 0.250505,3.06288 0.882662,4.96646 0.827629,2.492194 2.026297,4.333974 3.21152,4.934572 0.752742,0.381444 0.85022,0.543474 0.326955,0.543474 -0.238869,0 -0.876458,-0.226861 -1.525752,-0.54288 z"
     id="path4641"
     inkscape:connector-curvature="0"
     sodipodi:nodetypes="cssssssssssscsccssssssscscccsscscsssssssc" />
  <path
     style="opacity:0;fill:#01a65e;fill-opacity:0.92462313;stroke-width:0.12134671"
     d="m 21.908516,55.317089 c -4.226669,-2.057162 -7.638383,-5.351069 -9.588064,-9.256985 -1.349044,-2.702624 -2.220071,-6.292048 -2.024183,-8.341469 0.194013,-2.029783 1.752213,-5.446543 6.557758,-14.379585 2.95038,-5.484471 3.581022,-6.778374 4.183792,-8.583983 0.610015,-1.827309 0.850924,-3.233591 0.850924,-4.9671869 0,-2.700209 -0.598167,-4.399333 -2.363533,-6.7137317 -0.757426,-0.9929888 -1.155522,-1.7353937 -1.155522,-2.15492381 0,-0.3094369 0.05766,-0.3867227 0.333703,-0.4472762 1.084826,-0.2379706 6.035361,1.75484231 7.934693,3.19407021 1.003089,0.7600958 2.185286,2.0315705 2.862999,3.0792075 1.675062,2.589379 3.180618,6.9592769 4.650962,13.4994819 0.459022,2.041768 0.841761,2.893929 1.511042,3.364319 0.573595,0.403138 1.468776,0.545932 2.194757,0.350098 2.102027,-0.567024 2.441842,-2.575046 1.130029,-6.677526 -0.201001,-0.6286 -0.348995,-1.283873 -0.328876,-1.456161 0.03445,-0.294985 0.09553,-0.256642 1.047524,0.657522 1.430001,1.373178 3.570774,3.76013 4.583444,5.110518 4.48798,5.984689 5.806859,13.534353 3.558914,20.372292 -0.494204,1.503302 -1.775894,4.016534 -2.753837,5.399929 -1.566191,2.215529 -5.004445,5.384414 -6.683356,6.159749 -1.318236,0.608773 -1.148364,-0.134653 0.644611,-2.82107 1.393081,-2.087257 1.820107,-2.906032 2.287177,-4.385416 0.579556,-1.83567 0.720901,-2.94165 0.657148,-5.141945 -0.06552,-2.261359 -0.283855,-3.314962 -0.990207,-4.778411 -0.423944,-0.878345 -2.095958,-3.02233 -2.468484,-3.165281 -0.381443,-0.146374 -0.513854,0.26954 -0.517822,1.626519 -0.0045,1.550413 -0.169945,2.919428 -0.408472,3.380688 -0.232557,0.449717 -0.68884,0.648057 -1.659772,0.72148 -2.015467,0.152413 -3.24869,-0.793513 -3.518515,-2.698825 -0.100308,-0.708302 -0.0691,-1.166547 0.235605,-3.459094 0.279419,-2.102318 -0.666781,-4.245501 -2.733611,-6.191744 -1.890634,-1.780325 -3.986004,-2.206809 -3.760717,-0.765441 0.03304,0.21136 0.37384,1.160993 0.757342,2.110295 0.681209,1.686232 0.693889,1.738895 0.5503,2.285338 -0.32152,1.223574 -1.535098,2.904172 -4.32629,5.99117 -3.733223,4.128865 -4.283732,5.347776 -4.146848,9.181752 0.07387,2.06901 0.250505,3.06288 0.882662,4.96646 0.827629,2.492194 2.026297,4.333974 3.21152,4.934572 0.752742,0.381444 0.85022,0.543474 0.326955,0.543474 -0.238869,0 -0.876458,-0.226861 -1.525752,-0.54288 z"
     id="path4643"
     inkscape:connector-curvature="0"
     sodipodi:nodetypes="cssssssssssscsccssssssscscccsscscsssssssc" />
  <path
     style="opacity:0;fill:#01a65e;fill-opacity:0.92462313;stroke-width:0.12134671"
     d="m 21.908516,55.317089 c -4.226669,-2.057162 -7.638383,-5.351069 -9.588064,-9.256985 -1.349044,-2.702624 -2.220071,-6.292048 -2.024183,-8.341469 0.194013,-2.029783 1.752213,-5.446543 6.557758,-14.379585 2.95038,-5.484471 3.581022,-6.778374 4.183792,-8.583983 0.610015,-1.827309 0.850924,-3.233591 0.850924,-4.9671869 0,-2.700209 -0.598167,-4.399333 -2.363533,-6.7137317 -0.757426,-0.9929888 -1.155522,-1.7353937 -1.155522,-2.15492381 0,-0.3094369 0.05766,-0.3867227 0.333703,-0.4472762 1.084826,-0.2379706 6.035361,1.75484231 7.934693,3.19407021 1.003089,0.7600958 2.185286,2.0315705 2.862999,3.0792075 1.675062,2.589379 3.180618,6.9592769 4.650962,13.4994819 0.459022,2.041768 0.841761,2.893929 1.511042,3.364319 0.573595,0.403138 1.468776,0.545932 2.194757,0.350098 2.102027,-0.567024 2.441842,-2.575046 1.130029,-6.677526 -0.201001,-0.6286 -0.348995,-1.283873 -0.328876,-1.456161 0.03445,-0.294985 0.09553,-0.256642 1.047524,0.657522 1.430001,1.373178 3.570774,3.76013 4.583444,5.110518 4.48798,5.984689 5.806859,13.534353 3.558914,20.372292 -0.494204,1.503302 -1.775894,4.016534 -2.753837,5.399929 -1.566191,2.215529 -5.004445,5.384414 -6.683356,6.159749 -1.318236,0.608773 -1.148364,-0.134653 0.644611,-2.82107 1.393081,-2.087257 1.820107,-2.906032 2.287177,-4.385416 0.579556,-1.83567 0.720901,-2.94165 0.657148,-5.141945 -0.06552,-2.261359 -0.283855,-3.314962 -0.990207,-4.778411 -0.423944,-0.878345 -2.095958,-3.02233 -2.468484,-3.165281 -0.381443,-0.146374 -0.513854,0.26954 -0.517822,1.626519 -0.0045,1.550413 -0.169945,2.919428 -0.408472,3.380688 -0.232557,0.449717 -0.68884,0.648057 -1.659772,0.72148 -2.015467,0.152413 -3.24869,-0.793513 -3.518515,-2.698825 -0.100308,-0.708302 -0.0691,-1.166547 0.235605,-3.459094 0.279419,-2.102318 -0.666781,-4.245501 -2.733611,-6.191744 -1.890634,-1.780325 -3.986004,-2.206809 -3.760717,-0.765441 0.03304,0.21136 0.37384,1.160993 0.757342,2.110295 0.681209,1.686232 0.693889,1.738895 0.5503,2.285338 -0.32152,1.223574 -1.535098,2.904172 -4.32629,5.99117 -3.733223,4.128865 -4.283732,5.347776 -4.146848,9.181752 0.07387,2.06901 0.250505,3.06288 0.882662,4.96646 0.827629,2.492194 2.026297,4.333974 3.21152,4.934572 0.752742,0.381444 0.85022,0.543474 0.326955,0.543474 -0.238869,0 -0.876458,-0.226861 -1.525752,-0.54288 z"
     id="path4645"
     inkscape:connector-curvature="0"
     sodipodi:nodetypes="cssssssssssscsccssssssscscccsscscsssssssc" />
  <path
     style="opacity:0;fill:#01a65e;fill-opacity:0.92462313;stroke-width:0.12134671"
     d="m 21.908516,55.317089 c -4.226669,-2.057162 -7.638383,-5.351069 -9.588064,-9.256985 -1.349044,-2.702624 -2.220071,-6.292048 -2.024183,-8.341469 0.194013,-2.029783 1.752213,-5.446543 6.557758,-14.379585 2.95038,-5.484471 3.581022,-6.778374 4.183792,-8.583983 0.610015,-1.827309 0.850924,-3.233591 0.850924,-4.9671869 0,-2.700209 -0.598167,-4.399333 -2.363533,-6.7137317 -0.757426,-0.9929888 -1.155522,-1.7353937 -1.155522,-2.15492381 0,-0.3094369 0.05766,-0.3867227 0.333703,-0.4472762 1.084826,-0.2379706 6.035361,1.75484231 7.934693,3.19407021 1.003089,0.7600958 2.185286,2.0315705 2.862999,3.0792075 1.675062,2.589379 3.180618,6.9592769 4.650962,13.4994819 0.459022,2.041768 0.841761,2.893929 1.511042,3.364319 0.573595,0.403138 1.468776,0.545932 2.194757,0.350098 2.102027,-0.567024 2.441842,-2.575046 1.130029,-6.677526 -0.201001,-0.6286 -0.348995,-1.283873 -0.328876,-1.456161 0.03445,-0.294985 0.09553,-0.256642 1.047524,0.657522 1.430001,1.373178 3.570774,3.76013 4.583444,5.110518 4.48798,5.984689 5.806859,13.534353 3.558914,20.372292 -0.494204,1.503302 -1.775894,4.016534 -2.753837,5.399929 -1.566191,2.215529 -5.004445,5.384414 -6.683356,6.159749 -1.318236,0.608773 -1.148364,-0.134653 0.644611,-2.82107 1.393081,-2.087257 1.820107,-2.906032 2.287177,-4.385416 0.579556,-1.83567 0.720901,-2.94165 0.657148,-5.141945 -0.06552,-2.261359 -0.283855,-3.314962 -0.990207,-4.778411 -0.423944,-0.878345 -2.095958,-3.02233 -2.468484,-3.165281 -0.381443,-0.146374 -0.513854,0.26954 -0.517822,1.626519 -0.0045,1.550413 -0.169945,2.919428 -0.408472,3.380688 -0.232557,0.449717 -0.68884,0.648057 -1.659772,0.72148 -2.015467,0.152413 -3.24869,-0.793513 -3.518515,-2.698825 -0.100308,-0.708302 -0.0691,-1.166547 0.235605,-3.459094 0.279419,-2.102318 -0.666781,-4.245501 -2.733611,-6.191744 -1.890634,-1.780325 -3.986004,-2.206809 -3.760717,-0.765441 0.03304,0.21136 0.37384,1.160993 0.757342,2.110295 0.681209,1.686232 0.693889,1.738895 0.5503,2.285338 -0.32152,1.223574 -1.535098,2.904172 -4.32629,5.99117 -3.733223,4.128865 -4.283732,5.347776 -4.146848,9.181752 0.07387,2.06901 0.250505,3.06288 0.882662,4.96646 0.827629,2.492194 2.026297,4.333974 3.21152,4.934572 0.752742,0.381444 0.85022,0.543474 0.326955,0.543474 -0.238869,0 -0.876458,-0.226861 -1.525752,-0.54288 z"
     id="path4647"
     inkscape:connector-curvature="0"
     sodipodi:nodetypes="cssssssssssscsccssssssscscccsscscsssssssc" />
  <path
     style="opacity:0;fill:#01a65e;fill-opacity:0.92462313;stroke-width:0.12134671"
     d="m 21.908516,55.317089 c -4.226669,-2.057162 -7.638383,-5.351069 -9.588064,-9.256985 -1.349044,-2.702624 -2.220071,-6.292048 -2.024183,-8.341469 0.194013,-2.029783 1.752213,-5.446543 6.557758,-14.379585 2.95038,-5.484471 3.581022,-6.778374 4.183792,-8.583983 0.610015,-1.827309 0.850924,-3.233591 0.850924,-4.9671869 0,-2.700209 -0.598167,-4.399333 -2.363533,-6.7137317 -0.757426,-0.9929888 -1.155522,-1.7353937 -1.155522,-2.15492381 0,-0.3094369 0.05766,-0.3867227 0.333703,-0.4472762 1.084826,-0.2379706 6.035361,1.75484231 7.934693,3.19407021 1.003089,0.7600958 2.185286,2.0315705 2.862999,3.0792075 1.675062,2.589379 3.180618,6.9592769 4.650962,13.4994819 0.459022,2.041768 0.841761,2.893929 1.511042,3.364319 0.573595,0.403138 1.468776,0.545932 2.194757,0.350098 2.102027,-0.567024 2.441842,-2.575046 1.130029,-6.677526 -0.201001,-0.6286 -0.348995,-1.283873 -0.328876,-1.456161 0.03445,-0.294985 0.09553,-0.256642 1.047524,0.657522 1.430001,1.373178 3.570774,3.76013 4.583444,5.110518 4.48798,5.984689 5.806859,13.534353 3.558914,20.372292 -0.494204,1.503302 -1.775894,4.016534 -2.753837,5.399929 -1.566191,2.215529 -5.004445,5.384414 -6.683356,6.159749 -1.318236,0.608773 -1.148364,-0.134653 0.644611,-2.82107 1.393081,-2.087257 1.820107,-2.906032 2.287177,-4.385416 0.579556,-1.83567 0.720901,-2.94165 0.657148,-5.141945 -0.06552,-2.261359 -0.283855,-3.314962 -0.990207,-4.778411 -0.423944,-0.878345 -2.095958,-3.02233 -2.468484,-3.165281 -0.381443,-0.146374 -0.513854,0.26954 -0.517822,1.626519 -0.0045,1.550413 -0.169945,2.919428 -0.408472,3.380688 -0.232557,0.449717 -0.68884,0.648057 -1.659772,0.72148 -2.015467,0.152413 -3.24869,-0.793513 -3.518515,-2.698825 -0.100308,-0.708302 -0.0691,-1.166547 0.235605,-3.459094 0.279419,-2.102318 -0.666781,-4.245501 -2.733611,-6.191744 -1.890634,-1.780325 -3.986004,-2.206809 -3.760717,-0.765441 0.03304,0.21136 0.37384,1.160993 0.757342,2.110295 0.681209,1.686232 0.693889,1.738895 0.5503,2.285338 -0.32152,1.223574 -1.535098,2.904172 -4.32629,5.99117 -3.733223,4.128865 -4.283732,5.347776 -4.146848,9.181752 0.07387,2.06901 0.250505,3.06288 0.882662,4.96646 0.827629,2.492194 2.026297,4.333974 3.21152,4.934572 0.752742,0.381444 0.85022,0.543474 0.326955,0.543474 -0.238869,0 -0.876458,-0.226861 -1.525752,-0.54288 z"
     id="path4649"
     inkscape:connector-curvature="0"
     sodipodi:nodetypes="cssssssssssscsccssssssscscccsscscsssssssc" />
  <path
     style="opacity:0;fill:#01a65e;fill-opacity:0.92462313;stroke-width:0.12134671"
     d="m 21.908516,55.317089 c -4.226669,-2.057162 -7.638383,-5.351069 -9.588064,-9.256985 -1.349044,-2.702624 -2.220071,-6.292048 -2.024183,-8.341469 0.194013,-2.029783 1.752213,-5.446543 6.557758,-14.379585 2.95038,-5.484471 3.581022,-6.778374 4.183792,-8.583983 0.610015,-1.827309 0.850924,-3.233591 0.850924,-4.9671869 0,-2.700209 -0.598167,-4.399333 -2.363533,-6.7137317 -0.757426,-0.9929888 -1.155522,-1.7353937 -1.155522,-2.15492381 0,-0.3094369 0.05766,-0.3867227 0.333703,-0.4472762 1.084826,-0.2379706 6.035361,1.75484231 7.934693,3.19407021 1.003089,0.7600958 2.185286,2.0315705 2.862999,3.0792075 1.675062,2.589379 3.180618,6.9592769 4.650962,13.4994819 0.459022,2.041768 0.841761,2.893929 1.511042,3.364319 0.573595,0.403138 1.468776,0.545932 2.194757,0.350098 2.102027,-0.567024 2.441842,-2.575046 1.130029,-6.677526 -0.201001,-0.6286 -0.348995,-1.283873 -0.328876,-1.456161 0.03445,-0.294985 0.09553,-0.256642 1.047524,0.657522 1.430001,1.373178 3.570774,3.76013 4.583444,5.110518 4.48798,5.984689 5.806859,13.534353 3.558914,20.372292 -0.494204,1.503302 -1.775894,4.016534 -2.753837,5.399929 -1.566191,2.215529 -5.004445,5.384414 -6.683356,6.159749 -1.318236,0.608773 -1.148364,-0.134653 0.644611,-2.82107 1.393081,-2.087257 1.820107,-2.906032 2.287177,-4.385416 0.579556,-1.83567 0.720901,-2.94165 0.657148,-5.141945 -0.06552,-2.261359 -0.283855,-3.314962 -0.990207,-4.778411 -0.423944,-0.878345 -2.095958,-3.02233 -2.468484,-3.165281 -0.381443,-0.146374 -0.513854,0.26954 -0.517822,1.626519 -0.0045,1.550413 -0.169945,2.919428 -0.408472,3.380688 -0.232557,0.449717 -0.68884,0.648057 -1.659772,0.72148 -2.015467,0.152413 -3.24869,-0.793513 -3.518515,-2.698825 -0.100308,-0.708302 -0.0691,-1.166547 0.235605,-3.459094 0.279419,-2.102318 -0.666781,-4.245501 -2.733611,-6.191744 -1.890634,-1.780325 -3.986004,-2.206809 -3.760717,-0.765441 0.03304,0.21136 0.37384,1.160993 0.757342,2.110295 0.681209,1.686232 0.693889,1.738895 0.5503,2.285338 -0.32152,1.223574 -1.535098,2.904172 -4.32629,5.99117 -3.733223,4.128865 -4.283732,5.347776 -4.146848,9.181752 0.07387,2.06901 0.250505,3.06288 0.882662,4.96646 0.827629,2.492194 2.026297,4.333974 3.21152,4.934572 0.752742,0.381444 0.85022,0.543474 0.326955,0.543474 -0.238869,0 -0.876458,-0.226861 -1.525752,-0.54288 z"
     id="path4651"
     inkscape:connector-curvature="0"
     sodipodi:nodetypes="cssssssssssscsccssssssscscccsscscsssssssc" />
  <path
     style="opacity:0;fill:#01a65e;fill-opacity:0.92462313;stroke-width:0.12134671"
     d="m 21.908516,55.317089 c -4.226669,-2.057162 -7.638383,-5.351069 -9.588064,-9.256985 -1.349044,-2.702624 -2.220071,-6.292048 -2.024183,-8.341469 0.194013,-2.029783 1.752213,-5.446543 6.557758,-14.379585 2.95038,-5.484471 3.581022,-6.778374 4.183792,-8.583983 0.610015,-1.827309 0.850924,-3.233591 0.850924,-4.9671869 0,-2.700209 -0.598167,-4.399333 -2.363533,-6.7137317 -0.757426,-0.9929888 -1.155522,-1.7353937 -1.155522,-2.15492381 0,-0.3094369 0.05766,-0.3867227 0.333703,-0.4472762 1.084826,-0.2379706 6.035361,1.75484231 7.934693,3.19407021 1.003089,0.7600958 2.185286,2.0315705 2.862999,3.0792075 1.675062,2.589379 3.180618,6.9592769 4.650962,13.4994819 0.459022,2.041768 0.841761,2.893929 1.511042,3.364319 0.573595,0.403138 1.468776,0.545932 2.194757,0.350098 2.102027,-0.567024 2.441842,-2.575046 1.130029,-6.677526 -0.201001,-0.6286 -0.348995,-1.283873 -0.328876,-1.456161 0.03445,-0.294985 0.09553,-0.256642 1.047524,0.657522 1.430001,1.373178 3.570774,3.76013 4.583444,5.110518 4.48798,5.984689 5.806859,13.534353 3.558914,20.372292 -0.494204,1.503302 -1.775894,4.016534 -2.753837,5.399929 -1.566191,2.215529 -5.004445,5.384414 -6.683356,6.159749 -1.318236,0.608773 -1.148364,-0.134653 0.644611,-2.82107 1.393081,-2.087257 1.820107,-2.906032 2.287177,-4.385416 0.579556,-1.83567 0.720901,-2.94165 0.657148,-5.141945 -0.06552,-2.261359 -0.283855,-3.314962 -0.990207,-4.778411 -0.423944,-0.878345 -2.095958,-3.02233 -2.468484,-3.165281 -0.381443,-0.146374 -0.513854,0.26954 -0.517822,1.626519 -0.0045,1.550413 -0.169945,2.919428 -0.408472,3.380688 -0.232557,0.449717 -0.68884,0.648057 -1.659772,0.72148 -2.015467,0.152413 -3.24869,-0.793513 -3.518515,-2.698825 -0.100308,-0.708302 -0.0691,-1.166547 0.235605,-3.459094 0.279419,-2.102318 -0.666781,-4.245501 -2.733611,-6.191744 -1.890634,-1.780325 -3.986004,-2.206809 -3.760717,-0.765441 0.03304,0.21136 0.37384,1.160993 0.757342,2.110295 0.681209,1.686232 0.693889,1.738895 0.5503,2.285338 -0.32152,1.223574 -1.535098,2.904172 -4.32629,5.99117 -3.733223,4.128865 -4.283732,5.347776 -4.146848,9.181752 0.07387,2.06901 0.250505,3.06288 0.882662,4.96646 0.827629,2.492194 2.026297,4.333974 3.21152,4.934572 0.752742,0.381444 0.85022,0.543474 0.326955,0.543474 -0.238869,0 -0.876458,-0.226861 -1.525752,-0.54288 z"
     id="path4653"
     inkscape:connector-curvature="0"
     sodipodi:nodetypes="cssssssssssscsccssssssscscccsscscsssssssc" />
  <path
     style="opacity:0;fill:#01a65e;fill-opacity:0.92462313;stroke-width:0.12134671"
     d="m 0.04633567,65.997396 c 0,-1.055186 1.13025983,-1.716983 3.64040183,-2.131552 3.090082,-0.510351 7.4433965,-0.683118 19.8401855,-0.787384 9.336593,-0.07853 24.785555,0.0901 28.152438,0.307286 4.822532,0.311086 7.207391,0.84301 7.936739,1.770226 -2.861461,9.18119 -58.2440429,7.467996 -59.56976433,0.841424 z"
     id="path4655"
     inkscape:connector-curvature="0"
     sodipodi:nodetypes="cssscc" />
  <path
     style="opacity:0;fill:#01a65e;fill-opacity:0.92462313;stroke-width:0.12134671"
     d="m 0.04633567,65.997396 c 0,-1.055186 1.13025983,-1.716983 3.64040183,-2.131552 3.090082,-0.510351 7.4433965,-0.683118 19.8401855,-0.787384 9.336593,-0.07853 24.785555,0.0901 28.152438,0.307286 22.845394,4.892414 -46.7390474,12.286332 -51.63302533,2.61165 z"
     id="path4657"
     inkscape:connector-curvature="0"
     sodipodi:nodetypes="csscc" />
</svg>
