<?xml version="1.0" encoding="UTF-8" standalone="no"?>
<!-- Created with Inkscape (http://www.inkscape.org/) -->

<svg
   xmlns:dc="http://purl.org/dc/elements/1.1/"
   xmlns:cc="http://creativecommons.org/ns#"
   xmlns:rdf="http://www.w3.org/1999/02/22-rdf-syntax-ns#"
   xmlns:svg="http://www.w3.org/2000/svg"
   xmlns="http://www.w3.org/2000/svg"
   xmlns:sodipodi="http://sodipodi.sourceforge.net/DTD/sodipodi-0.dtd"
   xmlns:inkscape="http://www.inkscape.org/namespaces/inkscape"
   version="1.1"
   id="svg3701"
   width="82.879997"
   height="86.080002"
   viewBox="0 0 82.879997 86.080002"
   sodipodi:docname="logo.svg"
   inkscape:version="0.92.1 r15371">
  <metadata
     id="metadata3707">
    <rdf:RDF>
      <cc:Work
         rdf:about="">
        <dc:format>image/svg+xml</dc:format>
        <dc:type
           rdf:resource="http://purl.org/dc/dcmitype/StillImage" />
        <dc:title />
      </cc:Work>
    </rdf:RDF>
  </metadata>
  <defs
     id="defs3705" />
  <sodipodi:namedview
     pagecolor="#ffffff"
     bordercolor="#666666"
     borderopacity="1"
     objecttolerance="10"
     gridtolerance="10"
     guidetolerance="10"
     inkscape:pageopacity="0"
     inkscape:pageshadow="2"
     inkscape:window-width="1920"
     inkscape:window-height="1017"
     id="namedview3703"
     showgrid="false"
     inkscape:zoom="3.8772583"
     inkscape:cx="98.665248"
     inkscape:cy="58.15539"
     inkscape:window-x="-8"
     inkscape:window-y="-8"
     inkscape:window-maximized="1"
     inkscape:current-layer="svg3701" />
  <g
     id="g6208">
    <path
       style="fill:#aeaeae;stroke-width:0.31999999"
       d="m 52.219035,85.476488 c -0.289558,-0.178956 -0.379619,-1.026294 -0.312829,-2.943312 l 0.09379,-2.692009 1.44,-0.254516 c 4.769718,-0.843036 8.343824,-2.695763 10.983705,-5.693686 1.647459,-1.870903 3.351207,-5.083923 3.640227,-6.864941 l 0.179805,-1.108022 H 51.241867 34.239999 V 52.000001 c 0,-7.656 -0.05835,-13.92 -0.129674,-13.92 -0.07132,0 -1.180701,0.648 -2.465286,1.44 -3.456165,2.130867 -3.48504,2.114992 -3.48504,-1.915987 V 34.24803 l 1.2,-0.745658 c 3.621878,-2.250563 25.431711,-14.013199 25.820649,-13.925778 0.25303,0.05687 6.434675,3.487407 13.736988,7.623407 l 13.276934,7.52 0.102713,3.788224 c 0.06298,2.322717 -0.02403,3.893024 -0.224931,4.05913 -0.194537,0.160854 -1.657017,-0.493831 -3.6,-1.611556 L 75.199997,39.073332 V 52.47778 c 0,7.425479 -0.126265,13.482487 -0.283075,13.579402 -0.155693,0.09622 -0.375312,0.78872 -0.488048,1.538884 -0.280035,1.863446 -2.016595,5.755305 -3.622192,8.117811 -3.580854,5.268934 -9.986156,9.035901 -16.733855,9.841203 -0.795946,0.09499 -1.63015,0.05963 -1.853792,-0.07859 z M 68.159998,58.437057 c 0,-1.174409 -2.751181,-5.827977 -4.443933,-7.516832 -2.638134,-2.632057 -7.250502,-4.840224 -10.110147,-4.840224 -1.540525,0 -1.76592,-0.458733 -1.76592,-3.594042 0,-3.381728 0.0151,-3.39399 3.544835,-2.879526 4.36855,0.636723 7.891686,2.317843 12.114153,5.780458 l 1.301012,1.066889 -7.49e-4,-5.546889 -7.49e-4,-5.54689 -7.087158,-4 c -3.897936,-2.2 -7.2456,-3.952883 -7.439251,-3.895295 -0.193651,0.05759 -3.552848,1.785587 -7.46488,3.84 l -7.11279,3.735295 -0.0072,11.92 -0.0072,11.92 H 53.92002 c 11.915001,0 14.24,-0.07232 14.24,-0.442944 z m -56.888796,1.5448 c -1.149117,-0.804873 -0.934324,-2.154096 0.609573,-3.829027 1.529044,-1.658819 5.225878,-3.654176 5.767214,-3.112838 1.139159,1.139158 -3.434792,7.440009 -5.400896,7.440009 -0.145579,0 -0.58473,-0.224166 -0.975891,-0.498144 z M 29.439999,56.629294 C 22.759511,54.883467 17.3925,50.493723 14.390343,44.320001 c -1.65057,-3.394282 -2.296663,-6.295248 -2.280617,-10.24 0.03744,-9.203452 5.225991,-17.163503 13.688768,-21.00071 5.897288,-2.673958 13.427338,-2.528678 19.514592,0.376501 3.00577,1.434522 7.160371,4.868553 7.165322,5.922576 9.6e-4,0.186102 -1.140151,0.946711 -2.53561,1.690243 l -2.537197,1.351876 -1.062803,-0.929471 c -7.093302,-6.203437 -17.708252,-5.612263 -23.776057,1.324149 -5.8778,6.719209 -5.712742,16.164558 0.395972,22.659182 2.267364,2.410598 5.298185,4.192704 8.283669,4.870742 l 1.873617,0.42552 v 3.174698 c 0,3.736531 0.09169,3.669654 -3.68,2.683987 z M 2.5986351,34.55025 C 1.399726,34.277137 0.97223811,33.798228 0.96490006,32.720001 c -0.00895,-1.315061 1.06785764,-2 3.14424184,-2 3.1327494,0 6.9098681,1.46135 6.1484461,2.378806 -0.8067771,0.972109 -5.6958794,1.898637 -7.6589529,1.451443 z M 15.070774,15.915561 c -1.86704,-0.948025 -4.465695,-3.304533 -4.707788,-4.269109 -0.284944,-1.135306 0.633715,-2.3664518 1.765804,-2.3664518 1.154163,0 3.14241,1.8696038 4.493229,4.2251098 1.7174,2.994735 1.195764,3.805297 -1.551245,2.410451 z m 37.523486,-0.07936 c -0.50111,-1.305873 3.782893,-7.1962018 5.23376,-7.1962018 1.05737,0 2.011978,0.9268083 2.011978,1.9533838 0,1.268502 -2.390611,3.652602 -4.859856,4.846616 -2.121898,1.026054 -2.142848,1.029534 -2.385882,0.396202 z M 34.637279,10.163946 C 33.36141,8.590901 32.761727,2.4839865 33.782856,1.4628572 c 0.625623,-0.62562185 1.738612,-0.64652928 2.555981,-0.048014 0.523251,0.3831494 0.621162,0.8497146 0.621162,2.9599999 0,3.5076778 -1.381136,6.9499989 -2.32272,5.7891029 z"
       id="path6222"
       inkscape:connector-curvature="0" />
    <path
       style="fill:#c55600;stroke-width:0.31999999"
       d="m 52.053333,85.226668 c -0.289632,-0.289629 -0.262589,-4.658036 0.03155,-5.099498 0.129305,-0.194061 0.977871,-0.449264 1.885705,-0.567123 5.599683,-0.726976 10.440537,-4.22322 12.904422,-9.320045 0.680646,-1.408 1.32264,-2.954736 1.42665,-3.437194 l 0.189107,-0.877194 -17.045392,-0.08281 -17.045378,-0.08281 -0.0834,-13.840001 c -0.04587,-7.612 -0.171635,-13.84 -0.279475,-13.84 -0.107843,0 -1.276992,0.65624 -2.598108,1.458307 -1.321118,0.802071 -2.60442,1.380647 -2.851783,1.285725 -0.354324,-0.135968 -0.430388,-0.866608 -0.358493,-3.443543 l 0.09126,-3.27096 12.96,-7.167422 c 7.127999,-3.942084 13.175999,-7.228321 13.439999,-7.302749 0.264,-0.07443 6.528,3.300665 13.92,7.500207 l 13.439999,7.635529 0.08985,3.892455 c 0.06921,2.998243 -0.0043,3.891897 -0.32,3.890035 -0.225418,-0.0013 -1.77785,-0.783302 -3.44985,-1.737722 l -3.04,-1.735302 -0.07713,13.017722 c -0.04521,7.629539 -0.206214,13.282621 -0.388985,13.657719 -0.17152,0.352 -0.542899,1.563724 -0.82529,2.69272 C 72.556305,74.498834 67.968228,80.16052 62.25395,83.031989 58.817115,84.75902 52.866062,86.0394 52.053333,85.226668 Z M 51.839998,62.400001 v -2.24 h -6.56 -6.559999 V 47.224987 34.289975 l 7.645078,-4.024987 c 4.20479,-2.213743 7.864447,-4.024987 8.132569,-4.024987 0.439795,0 14.222137,7.621645 15.182351,8.395849 0.296295,0.2389 0.4,2.008324 0.4,6.824852 v 6.502336 l 1.262676,2.018483 c 0.69447,1.110163 1.59447,2.88248 2,3.93848 l 0.737324,1.92 0.08491,-9.2 c 0.04815,-5.217283 0.210343,-9.2 0.374663,-9.2 0.159363,0 1.681577,0.803577 3.382694,1.785731 1.701117,0.982151 3.170086,1.708586 3.264374,1.614295 0.09429,-0.09429 0.0674,-1.365869 -0.05976,-2.825732 l -0.2312,-2.654294 -12.947734,-7.316158 -12.947731,-7.316157 -1.68967,0.916157 c -0.929318,0.503887 -6.676441,3.652158 -12.771382,6.996158 l -11.081711,6.08 -0.0087,2.356803 -0.0087,2.356803 0.72,-0.458112 c 2.97376,-1.892102 4.765213,-2.825321 5.066346,-2.639213 0.254896,0.157536 0.287929,4.130669 0.118569,14.261047 l -0.234762,14.042673 h 8.364925 8.364924 z m 16.32,-3.957004 c 0,-1.556237 -2.279527,-5.416573 -4.488228,-7.60073 -2.577539,-2.548899 -5.243766,-3.948359 -8.891497,-4.666999 L 52.159998,45.659044 V 42.486497 39.31395 l 1.84,0.207993 c 4.892438,0.553047 9.622028,2.565962 12.81215,5.452855 1.060682,0.959862 2.017184,1.745203 2.125565,1.745203 0.108377,0 0.157731,-2.555776 0.109667,-5.679504 L 68.96,35.360996 65.12,33.170458 C 63.008,31.965663 59.747238,30.120034 57.873862,29.069061 L 54.467725,27.1582 47.073863,31.049695 39.680001,34.941191 V 47.070596 59.200001 H 53.92 68.16 Z m -57.097141,1.214147 c -0.869846,-0.869847 -0.589413,-1.909347 0.939491,-3.482474 1.598062,-1.644285 5.213984,-3.566336 5.732956,-3.047363 0.481875,0.481872 -1.189591,3.618806 -2.905919,5.453699 -1.588008,1.697709 -2.798971,2.043696 -3.766528,1.076138 z M 30.559999,56.804369 C 23.294478,55.207406 17.812751,50.937425 14.532786,44.320001 c -1.893837,-3.82087 -2.477879,-6.684103 -2.284575,-11.2 0.298063,-6.963219 3.447432,-13.084289 8.790985,-17.086036 4.200259,-3.145544 7.853058,-4.471686 13.047209,-4.736769 4.326739,-0.220814 7.579817,0.481167 11.608832,2.505066 2.823414,1.418291 7.070636,4.996299 6.680361,5.627775 -0.247241,0.400048 -4.237558,2.649964 -4.699817,2.649964 -0.166202,0 -1.303296,-0.730436 -2.526877,-1.62319 -7.075129,-5.162185 -16.265905,-4.37322 -22.18818,1.904704 -3.240412,3.435008 -4.709793,7.039597 -4.716927,11.571254 -0.0073,4.65559 1.672836,8.699622 5.001615,12.038522 2.016832,2.022963 5.455844,3.973949 7.794587,4.421949 2.4136,0.462339 2.271795,0.226838 2.171283,3.605968 -0.05061,1.701414 -0.233875,3.104176 -0.411283,3.148048 -0.176,0.04352 -1.184,-0.110778 -2.24,-0.342887 z M 1.4873435,33.890484 c -0.74956426,-1.07015 -0.65645796,-1.741501 0.3526564,-2.54285 0.7650766,-0.607557 1.151637,-0.676504 2.9599999,-0.527952 2.4882956,0.204407 5.2365232,1.160074 5.3729302,1.86838 0.153377,0.796422 -2.2881124,1.605462 -5.4055865,1.791257 -2.61789,0.156023 -2.7784745,0.127194 -3.28,-0.588835 z M 15.115372,15.817627 C 12.982488,14.754766 10.24,12.193093 10.24,11.263693 c 0,-0.881501 1.070775,-1.9836928 1.927149,-1.9836928 0.980959,0 3.299524,2.3270558 4.427909,4.4441228 1.641612,3.079979 1.344231,3.500722 -1.479686,2.093504 z m 37.364626,-0.172834 c 0,-1.58154 4.325021,-7.0047928 5.586291,-7.0047928 0.705946,0 1.773709,1.1640829 1.773709,1.9337088 0,0.359541 -0.662343,1.361807 -1.471872,2.22726 -2.018861,2.158326 -5.888128,4.027089 -5.888128,2.843824 z M 34.301586,9.3748063 C 33.111199,6.316844 32.892751,2.3696474 33.865196,1.4895961 c 0.796572,-0.72088975 1.75296,-0.66524469 2.485206,0.1445959 0.49032,0.5422757 0.601222,1.1214467 0.566797,2.9600001 -0.07417,3.9606807 -1.745594,7.0155909 -2.615613,4.7806142 z"
       id="path6220"
       inkscape:connector-curvature="0" />
    <path
       style="fill:#585858;stroke-width:0.31999999"
       d="m 52.053333,85.226668 c -0.289632,-0.289629 -0.262589,-4.658036 0.03155,-5.099498 0.129305,-0.194061 0.977871,-0.449264 1.885705,-0.567123 5.599683,-0.726976 10.440537,-4.22322 12.904422,-9.320045 0.680646,-1.408 1.32264,-2.954736 1.42665,-3.437194 l 0.189107,-0.877194 -17.045392,-0.08281 -17.045378,-0.08281 -0.0834,-13.840001 c -0.04587,-7.612 -0.171635,-13.84 -0.279475,-13.84 -0.107843,0 -1.276992,0.65624 -2.598108,1.458307 -1.321118,0.802071 -2.60442,1.380647 -2.851783,1.285725 -0.354324,-0.135968 -0.430388,-0.866608 -0.358493,-3.443543 l 0.09126,-3.27096 12.96,-7.167422 c 7.127999,-3.942084 13.175999,-7.228321 13.439999,-7.302749 0.264,-0.07443 6.528,3.300665 13.92,7.500207 l 13.439999,7.635529 0.08985,3.892455 c 0.06921,2.998243 -0.0043,3.891897 -0.32,3.890035 -0.225418,-0.0013 -1.77785,-0.783302 -3.44985,-1.737722 l -3.04,-1.735302 -0.07713,13.017722 c -0.04521,7.629539 -0.206214,13.282621 -0.388985,13.657719 -0.17152,0.352 -0.542899,1.563724 -0.82529,2.69272 C 72.556305,74.498834 67.968228,80.16052 62.25395,83.031989 58.817115,84.75902 52.866062,86.0394 52.053333,85.226668 Z M 51.839998,62.400001 v -2.24 h -6.56 -6.559999 V 47.224987 34.289975 l 7.645078,-4.024987 c 4.20479,-2.213743 7.864447,-4.024987 8.132569,-4.024987 0.439795,0 14.222137,7.621645 15.182351,8.395849 0.296295,0.2389 0.4,2.008324 0.4,6.824852 v 6.502336 l 1.262676,2.018483 c 0.69447,1.110163 1.59447,2.88248 2,3.93848 l 0.737324,1.92 0.08491,-9.2 c 0.04815,-5.217283 0.210343,-9.2 0.374663,-9.2 0.159363,0 1.681577,0.803577 3.382694,1.785731 1.701117,0.982151 3.170086,1.708586 3.264374,1.614295 0.09429,-0.09429 0.0674,-1.365869 -0.05976,-2.825732 l -0.2312,-2.654294 -12.947734,-7.316158 -12.947731,-7.316157 -1.68967,0.916157 c -0.929318,0.503887 -6.676441,3.652158 -12.771382,6.996158 l -11.081711,6.08 -0.0087,2.356803 -0.0087,2.356803 0.72,-0.458112 c 2.97376,-1.892102 4.765213,-2.825321 5.066346,-2.639213 0.254896,0.157536 0.287929,4.130669 0.118569,14.261047 l -0.234762,14.042673 h 8.364925 8.364924 z m 16.32,-3.957004 c 0,-1.556237 -2.279527,-5.416573 -4.488228,-7.60073 -2.577539,-2.548899 -5.243766,-3.948359 -8.891497,-4.666999 L 52.159998,45.659044 V 42.486497 39.31395 l 1.84,0.207993 c 4.892438,0.553047 9.622028,2.565962 12.81215,5.452855 1.060682,0.959862 2.017184,1.745203 2.125565,1.745203 0.108377,0 0.157731,-2.555776 0.109667,-5.679504 L 68.96,35.360996 65.12,33.170458 C 63.008,31.965663 59.747238,30.120034 57.873862,29.069061 L 54.467725,27.1582 47.073863,31.049695 39.680001,34.941191 V 47.070596 59.200001 H 53.92 68.16 Z m -57.097141,1.214147 c -0.869846,-0.869847 -0.589413,-1.909347 0.939491,-3.482474 1.598062,-1.644285 5.213984,-3.566336 5.732956,-3.047363 0.481875,0.481872 -1.189591,3.618806 -2.905919,5.453699 -1.588008,1.697709 -2.798971,2.043696 -3.766528,1.076138 z m 2.940418,-1.85097 c 1.389003,-1.506889 2.150044,-2.71952 1.87769,-2.991872 -0.241984,-0.241987 -3.347679,2.088208 -3.726445,2.795939 -0.447903,0.836912 -0.388838,1.58976 0.124724,1.58976 0.241585,0 1.017399,-0.627222 1.724031,-1.393827 z M 30.559999,56.804369 C 23.294478,55.207406 17.812751,50.937425 14.532786,44.320001 c -1.893837,-3.82087 -2.477879,-6.684103 -2.284575,-11.2 0.298063,-6.963219 3.447432,-13.084289 8.790985,-17.086036 4.200259,-3.145544 7.853058,-4.471686 13.047209,-4.736769 4.326739,-0.220814 7.579817,0.481167 11.608832,2.505066 2.823414,1.418291 7.070636,4.996299 6.680361,5.627775 -0.247241,0.400048 -4.237558,2.649964 -4.699817,2.649964 -0.166202,0 -1.303296,-0.730436 -2.526877,-1.62319 -7.075129,-5.162185 -16.265905,-4.37322 -22.18818,1.904704 -3.240412,3.435008 -4.709793,7.039597 -4.716927,11.571254 -0.0073,4.65559 1.672836,8.699622 5.001615,12.038522 2.016832,2.022963 5.455844,3.973949 7.794587,4.421949 2.4136,0.462339 2.271795,0.226838 2.171283,3.605968 -0.05061,1.701414 -0.233875,3.104176 -0.411283,3.148048 -0.176,0.04352 -1.184,-0.110778 -2.24,-0.342887 z m 1.44,-2.894409 c 0,-1.392772 -0.133447,-2.131287 -0.4,-2.213668 -0.22,-0.06799 -1.260863,-0.381523 -2.313029,-0.696732 -2.414059,-0.72321 -6.13825,-3.1965 -7.780086,-5.166874 -3.736198,-4.483824 -5.181644,-9.909808 -4.068541,-15.272685 0.801477,-3.86148 2.131985,-6.316311 4.948837,-9.130768 4.0931,-4.089619 7.974102,-5.613489 13.612819,-5.345054 3.864809,0.183987 6.033663,0.917489 9.412713,3.18336 l 2.372713,1.591058 1.307287,-0.715117 c 0.719008,-0.393314 1.424691,-0.819104 1.568189,-0.946199 0.463814,-0.410807 -3.068231,-3.193736 -5.700903,-4.491789 -3.568278,-1.75936 -6.080569,-2.35053 -9.919999,-2.334286 -5.261538,0.02226 -9.818302,1.650382 -13.841435,4.945512 -5.10492,4.181164 -7.873,10.131246 -7.873,16.923283 0,6.718874 2.739444,12.586406 7.895627,16.911405 2.383463,1.999245 8.088393,4.612515 10.538808,4.827536 0.132,0.01158 0.24,-0.919459 0.24,-2.068982 z M 1.4873435,33.890484 c -0.74956426,-1.07015 -0.65645796,-1.741501 0.3526564,-2.54285 0.7650766,-0.607557 1.151637,-0.676504 2.9599999,-0.527952 2.4882956,0.204407 5.2365232,1.160074 5.3729302,1.86838 0.153377,0.796422 -2.2881124,1.605462 -5.4055865,1.791257 -2.61789,0.156023 -2.7784745,0.127194 -3.28,-0.588835 z M 6.5801978,33.22105 8.467136,32.842097 7.513568,32.435482 C 6.1393079,31.849478 2.5899566,31.869591 2.3616007,32.464662 1.9058891,33.65223 3.241093,33.891622 6.5801978,33.221037 Z M 15.115372,15.817627 C 12.982488,14.754766 10.24,12.193093 10.24,11.263693 c 0,-0.881501 1.070775,-1.9836928 1.927149,-1.9836928 0.980959,0 3.299524,2.3270558 4.427909,4.4441228 1.641612,3.079979 1.344231,3.500722 -1.479686,2.093504 z m 0.373106,-1.949862 C 13.922241,11.340879 11.52,9.6897583 11.52,11.140131 c 0,0.652905 1.151146,1.827366 3.009824,3.070781 1.475345,0.986973 1.72722,0.896816 0.958654,-0.343147 z m 36.99152,1.777028 c 0,-1.58154 4.325021,-7.0047928 5.586291,-7.0047928 0.705946,0 1.773709,1.1640829 1.773709,1.9337088 0,0.359541 -0.662343,1.361807 -1.471872,2.22726 -2.018861,2.158326 -5.888128,4.027089 -5.888128,2.843824 z m 4.72,-3.268793 c 1.32583,-1.276358 1.779696,-2.4559998 0.944944,-2.4559998 -0.67985,0 -3.744944,3.4722958 -3.744944,4.2424608 0,0.456012 1.395437,-0.434307 2.8,-1.786461 z M 34.301586,9.3748063 C 33.111199,6.316844 32.892751,2.3696474 33.865196,1.4895961 c 0.796572,-0.72088975 1.75296,-0.66524469 2.485206,0.1445959 0.49032,0.5422757 0.601222,1.1214467 0.566797,2.9600001 -0.07417,3.9606807 -1.745594,7.0155909 -2.615613,4.7806142 z m 1.362925,-4.5748062 c 0.01414,-2.191829 -0.04003,-2.4 -0.624512,-2.4 -0.8488,0 -0.974845,1.008256 -0.476519,3.8117623 0.3292,1.8520426 0.449447,2.1122653 0.739344,1.6 0.19041,-0.3364694 0.353172,-1.6917623 0.361687,-3.0117623 z"
       id="path6218"
       inkscape:connector-curvature="0" />
    <path
       style="fill:#00a55c;stroke-width:0.31999999"
       d="m 52.226974,82.678677 0.09302,-2.838675 1.631325,-0.19912 c 5.534643,-0.675555 10.585171,-4.254029 13.042243,-9.24088 0.650377,-1.32 1.269728,-2.94 1.376336,-3.6 l 0.193833,-1.2 H 51.356248 34.148757 l 0.234791,-13.920001 c 0.129132,-7.656 0.13366,-13.92 0.01005,-13.92 -0.1236,0 -1.416727,0.72 -2.87361,1.6 -1.456885,0.88 -2.736883,1.6 -2.84444,1.6 -0.107558,0 -0.19075,-1.548 -0.184872,-3.44 l 0.01069,-3.44 13.243948,-7.27522 13.243949,-7.275219 13.065363,7.396795 c 7.185948,4.068237 13.240645,7.558511 13.454882,7.756165 0.517459,0.477415 0.952858,7.382273 0.483779,7.672177 -0.185475,0.11463 -1.710208,-0.584282 -3.388297,-1.55314 -1.678077,-0.968857 -3.130694,-1.761558 -3.228026,-1.761558 -0.09733,0 -0.176963,5.976 -0.176963,13.28 0,7.304 -0.121085,13.280001 -0.269078,13.280001 -0.147994,0 -0.45025,0.828 -0.671677,1.84 -2.062137,9.424585 -10.338275,16.827434 -19.952268,17.846915 l -2.173021,0.230432 z M 52.013835,64.218795 c 0.102317,-0.407664 0.141062,-1.451664 0.0861,-2.32 l -0.09993,-1.578794 -6.56,-0.16 -6.559999,-0.16 -0.08007,-12.8 -0.08007,-12.8 7.777094,-4.08 c 4.277401,-2.244 7.890534,-4.08 8.029184,-4.08 0.138649,0 3.622329,1.908 7.741513,4.24 l 7.489424,4.24 0.0016,6.526877 0.0016,6.52688 1.193497,1.79312 c 0.656423,0.986218 1.662,2.945123 2.234618,4.353123 l 1.04112,2.56 0.0054,-9.341114 c 0.0029,-5.137612 0.113382,-9.406944 0.245382,-9.487398 0.132,-0.08046 1.68,0.687952 3.44,1.707574 l 3.2,1.853853 0.0932,-2.737258 c 0.05126,-1.505491 -0.02074,-2.850748 -0.16,-2.989462 -0.139261,-0.13871 -6.063475,-3.549689 -13.164918,-7.579953 L 54.976558,20.578489 42.20828,27.624907 29.439999,34.671326 v 2.344336 c 0,1.289385 0.06689,2.344339 0.14865,2.344339 0.08176,0 1.215993,-0.648 2.520524,-1.44 1.304531,-0.792 2.533639,-1.44 2.731351,-1.44 0.260582,0 0.359475,3.917514 0.359475,14.24 v 14.240001 h 8.313903 8.313904 z m 16.466163,-5.128698 c 0,-0.06045 -0.288631,-0.948822 -0.641402,-1.974166 -1.931485,-5.613962 -7.325635,-10.09626 -13.312425,-11.062032 l -2.366173,-0.381706 v -3.006138 c 0,-2.132947 0.117898,-3.051382 0.405882,-3.161891 0.629334,-0.241501 5.311155,0.67296 7.301699,1.426179 2.280483,0.862928 5.299279,2.691069 7.314671,4.429658 0.867088,0.748 1.657802,1.36 1.757136,1.36 0.09934,0 0.180611,-2.55944 0.180611,-5.687645 v -5.687645 l -7.279705,-4.122785 -7.279705,-4.122785 -3.840294,1.976468 c -2.112164,1.087057 -5.460295,2.844292 -7.440295,3.904968 l -3.599999,1.928499 v 12.145463 12.145462 h 14.399999 c 7.92,0 14.4,-0.04946 14.4,-0.109904 z m -57.280816,0.588919 c -0.844354,-1.017383 -0.468871,-2.15792 1.222393,-3.71304 1.795082,-1.650586 4.294281,-3.008135 5.023037,-2.728484 0.58256,0.223549 0.230977,1.152596 -1.37651,3.637383 -1.872997,2.8952 -3.848908,4.033181 -4.86892,2.804141 z m 2.804093,-1.872842 c 1.389003,-1.506889 2.150044,-2.71952 1.87769,-2.991872 -0.241984,-0.241987 -3.347679,2.088208 -3.726445,2.795939 -0.447903,0.836912 -0.388838,1.58976 0.124724,1.58976 0.241585,0 1.017399,-0.627222 1.724031,-1.393827 z M 29.599999,56.485893 C 23.441891,54.823246 18.509721,51.125096 15.391281,45.832174 c -4.171135,-7.079658 -4.160904,-16.25359 0.02607,-23.373299 1.366374,-2.323442 5.678084,-6.635152 8.001525,-8.001526 7.615654,-4.4786278 17.452687,-4.115459 24.741125,0.913405 1.88072,1.297656 4.0004,3.344584 3.99729,3.860091 -0.0016,0.247035 -1.062487,1.013755 -2.35776,1.703821 l -2.35505,1.254667 -1.56224,-1.300833 c -8.482758,-7.063349 -21.124281,-4.304422 -25.98706,5.671501 -2.114431,4.337725 -2.39886,8.017917 -0.978686,12.663082 1.639108,5.36126 6.894808,10.176829 12.394159,11.35623 l 1.649348,0.353722 v 3.013481 3.013485 l -0.88,-0.02106 c -0.484,-0.01158 -1.6,-0.215456 -2.48,-0.453049 z m 2.4,-2.575933 c 0,-1.392772 -0.133447,-2.131287 -0.4,-2.213668 -0.22,-0.06799 -1.260863,-0.381523 -2.313029,-0.696732 -2.414059,-0.72321 -6.13825,-3.1965 -7.780086,-5.166874 -3.736198,-4.483824 -5.181644,-9.909808 -4.068541,-15.272685 0.801477,-3.86148 2.131985,-6.316311 4.948837,-9.130768 4.0931,-4.089619 7.974102,-5.613489 13.612819,-5.345054 3.864809,0.183987 6.033663,0.917489 9.412713,3.18336 l 2.372713,1.591058 1.307287,-0.715117 c 0.719008,-0.393314 1.424691,-0.819104 1.568189,-0.946199 0.463814,-0.410807 -3.068231,-3.193736 -5.700903,-4.491789 -3.568278,-1.75936 -6.080569,-2.35053 -9.919999,-2.334286 -5.261538,0.02226 -9.818302,1.650382 -13.841435,4.945512 -5.10492,4.181164 -7.873,10.131246 -7.873,16.923283 0,6.718874 2.739444,12.586406 7.895627,16.911405 2.383463,1.999245 8.088393,4.612515 10.538808,4.827536 0.132,0.01158 0.24,-0.919459 0.24,-2.068982 z M 1.8399999,34.214369 C 1.1882565,33.834762 1.0734483,32.014551 1.6639999,31.424001 2.3090633,30.778937 6.4523092,30.948827 8.4679955,31.702992 9.4425977,32.067639 10.24,32.49594 10.24,32.654775 c 0,1.185891 -6.8560945,2.458835 -8.4000001,1.559594 z M 6.5801978,33.22105 8.467136,32.842097 7.513568,32.435482 C 6.1393079,31.849478 2.5899566,31.869591 2.3616007,32.464662 1.9058891,33.65223 3.241093,33.891622 6.5801978,33.221037 Z M 15.437818,15.846788 C 13.148755,14.78625 10.56,12.330833 10.56,11.220211 c 0,-2.1353929 2.000615,-2.2203407 3.993728,-0.169577 1.518662,1.562587 3.273388,4.85025 2.826986,5.296652 -0.150827,0.150827 -1.020784,-0.07328 -1.942896,-0.500498 z m 0.05066,-1.979023 C 13.922241,11.340879 11.52,9.6897583 11.52,11.140131 c 0,0.652905 1.151146,1.827366 3.009824,3.070781 1.475345,0.986973 1.72722,0.896816 0.958654,-0.343147 z m 37.427446,1.152602 c 0.10776,-0.538799 0.714231,-1.760492 1.347712,-2.714873 2.128583,-3.2068448 4.056983,-4.1766951 5.109811,-2.5698771 0.460394,0.7026511 0.461556,0.8658241 0.01235,1.7345081 -0.585865,1.132939 -2.683657,2.899641 -4.573043,3.85129 -1.842214,0.927888 -2.133366,0.881679 -1.896822,-0.301048 z M 57.199998,12.376 c 1.32583,-1.276358 1.779696,-2.4559998 0.944944,-2.4559998 -0.67985,0 -3.744944,3.4722958 -3.744944,4.2424608 0,0.456012 1.395437,-0.434307 2.8,-1.786461 z M 34.438031,9.3535442 C 33.413919,7.3731339 32.969884,2.7864287 33.704956,1.7811615 34.262047,1.0192921 35.822127,1.0301882 36.402216,1.8 c 0.915424,1.2148142 -0.136461,8.44 -1.228745,8.44 -0.152371,0 -0.483319,-0.3989051 -0.73544,-0.8864558 z m 1.22648,-4.5535441 c 0.01414,-2.191829 -0.04003,-2.4 -0.624512,-2.4 -0.8488,0 -0.974845,1.008256 -0.476519,3.8117623 0.3292,1.8520426 0.449447,2.1122653 0.739344,1.6 0.19041,-0.3364694 0.353172,-1.6917623 0.361687,-3.0117623 z"
       id="path6216"
       inkscape:connector-curvature="0" />
    <path
       style="fill:#aa4700;stroke-width:0.31999999"
       d="m 52.226974,82.678677 0.09302,-2.838675 1.631325,-0.19912 c 5.534643,-0.675555 10.585171,-4.254029 13.042243,-9.24088 0.650377,-1.32 1.269728,-2.94 1.376336,-3.6 l 0.193833,-1.2 H 51.356248 34.148757 l 0.234791,-13.920001 c 0.129132,-7.656 0.13366,-13.92 0.01005,-13.92 -0.1236,0 -1.416727,0.72 -2.87361,1.6 -1.456885,0.88 -2.736883,1.6 -2.84444,1.6 -0.107558,0 -0.19075,-1.548 -0.184872,-3.44 l 0.01069,-3.44 13.243948,-7.27522 13.243949,-7.275219 13.065363,7.396795 c 7.185948,4.068237 13.240645,7.558511 13.454882,7.756165 0.517459,0.477415 0.952858,7.382273 0.483779,7.672177 -0.185475,0.11463 -1.710208,-0.584282 -3.388297,-1.55314 -1.678077,-0.968857 -3.130694,-1.761558 -3.228026,-1.761558 -0.09733,0 -0.176963,5.976 -0.176963,13.28 0,7.304 -0.121085,13.280001 -0.269078,13.280001 -0.147994,0 -0.45025,0.828 -0.671677,1.84 -2.062137,9.424585 -10.338275,16.827434 -19.952268,17.846915 l -2.173021,0.230432 z m 5.115606,0.985751 c 4.320781,-1.048458 8.682861,-3.83786 11.385098,-7.280385 2.238118,-2.85126 2.793062,-3.875398 3.941177,-7.273373 C 75.96521,59.35475 71.65114,48.434052 62.399998,43.115927 60.517569,42.03379 57.427182,41.014971 55.034699,40.687777 l -1.914701,-0.26185 v 2.172538 2.172534 l 1.2,0.201111 c 6.011075,1.007401 10.907062,4.56047 13.502979,9.799251 0.737933,1.489207 1.422601,3.310871 1.521491,4.048144 l 0.179798,1.340496 h -8.202134 -8.202134 v 2.24 2.240001 h 8.141113 c 5.074791,0 8.215504,0.120361 8.338614,0.319561 0.108628,0.17576 -0.02854,1.201853 -0.304793,2.280208 -1.760438,6.871664 -7.974726,12.515133 -14.654934,13.308791 l -1.52,0.180585 v 1.889927 1.88993 l 1.2,-0.201162 c 0.66,-0.110637 2.020163,-0.400173 3.022582,-0.643414 z M 52.013835,64.218795 c 0.102317,-0.407664 0.141062,-1.451664 0.0861,-2.32 l -0.09993,-1.578794 -6.56,-0.16 -6.559999,-0.16 -0.08007,-12.8 -0.08007,-12.8 7.777094,-4.08 c 4.277401,-2.244 7.890534,-4.08 8.029184,-4.08 0.138649,0 3.622329,1.908 7.741513,4.24 l 7.489424,4.24 0.0016,6.526877 0.0016,6.52688 1.193497,1.79312 c 0.656423,0.986218 1.662,2.945123 2.234618,4.353123 l 1.04112,2.56 0.0054,-9.341114 c 0.0029,-5.137612 0.113382,-9.406944 0.245382,-9.487398 0.132,-0.08046 1.68,0.687952 3.44,1.707574 l 3.2,1.853853 0.0932,-2.737258 c 0.05126,-1.505491 -0.02074,-2.850748 -0.16,-2.989462 -0.139261,-0.13871 -6.063475,-3.549689 -13.164918,-7.579953 L 54.976558,20.578489 42.20828,27.624907 29.439999,34.671326 v 2.344336 c 0,1.289385 0.06689,2.344339 0.14865,2.344339 0.08176,0 1.215993,-0.648 2.520524,-1.44 1.304531,-0.792 2.533639,-1.44 2.731351,-1.44 0.260582,0 0.359475,3.917514 0.359475,14.24 v 14.240001 h 8.313903 8.313904 z m 16.466163,-5.128698 c 0,-0.06045 -0.288631,-0.948822 -0.641402,-1.974166 -1.931485,-5.613962 -7.325635,-10.09626 -13.312425,-11.062032 l -2.366173,-0.381706 v -3.006138 c 0,-2.132947 0.117898,-3.051382 0.405882,-3.161891 0.629334,-0.241501 5.311155,0.67296 7.301699,1.426179 2.280483,0.862928 5.299279,2.691069 7.314671,4.429658 0.867088,0.748 1.657802,1.36 1.757136,1.36 0.09934,0 0.180611,-2.55944 0.180611,-5.687645 v -5.687645 l -7.279705,-4.122785 -7.279705,-4.122785 -3.840294,1.976468 c -2.112164,1.087057 -5.460295,2.844292 -7.440295,3.904968 l -3.599999,1.928499 v 12.145463 12.145462 h 14.399999 c 7.92,0 14.4,-0.04946 14.4,-0.109904 z m -57.280816,0.588919 c -0.844354,-1.017383 -0.468871,-2.15792 1.222393,-3.71304 1.795082,-1.650586 4.294281,-3.008135 5.023037,-2.728484 0.58256,0.223549 0.230977,1.152596 -1.37651,3.637383 -1.872997,2.8952 -3.848908,4.033181 -4.86892,2.804141 z m 2.804093,-1.872842 c 1.389003,-1.506889 2.150044,-2.71952 1.87769,-2.991872 -0.241984,-0.241987 -3.347679,2.088208 -3.726445,2.795939 -0.447903,0.836912 -0.388838,1.58976 0.124724,1.58976 0.241585,0 1.017399,-0.627222 1.724031,-1.393827 z M 29.599999,56.485893 C 23.441891,54.823246 18.509721,51.125096 15.391281,45.832174 c -4.171135,-7.079658 -4.160904,-16.25359 0.02607,-23.373299 1.366374,-2.323442 5.678084,-6.635152 8.001525,-8.001526 7.615654,-4.4786278 17.452687,-4.115459 24.741125,0.913405 1.88072,1.297656 4.0004,3.344584 3.99729,3.860091 -0.0016,0.247035 -1.062487,1.013755 -2.35776,1.703821 l -2.35505,1.254667 -1.56224,-1.300833 c -8.482758,-7.063349 -21.124281,-4.304422 -25.98706,5.671501 -2.114431,4.337725 -2.39886,8.017917 -0.978686,12.663082 1.639108,5.36126 6.894808,10.176829 12.394159,11.35623 l 1.649348,0.353722 v 3.013481 3.013485 l -0.88,-0.02106 c -0.484,-0.01158 -1.6,-0.215456 -2.48,-0.453049 z m 2.4,-2.575933 c 0,-1.392772 -0.133447,-2.131287 -0.4,-2.213668 -0.22,-0.06799 -1.260863,-0.381523 -2.313029,-0.696732 -2.414059,-0.72321 -6.13825,-3.1965 -7.780086,-5.166874 -3.736198,-4.483824 -5.181644,-9.909808 -4.068541,-15.272685 0.801477,-3.86148 2.131985,-6.316311 4.948837,-9.130768 4.0931,-4.089619 7.974102,-5.613489 13.612819,-5.345054 3.864809,0.183987 6.033663,0.917489 9.412713,3.18336 l 2.372713,1.591058 1.307287,-0.715117 c 0.719008,-0.393314 1.424691,-0.819104 1.568189,-0.946199 0.463814,-0.410807 -3.068231,-3.193736 -5.700903,-4.491789 -3.568278,-1.75936 -6.080569,-2.35053 -9.919999,-2.334286 -5.261538,0.02226 -9.818302,1.650382 -13.841435,4.945512 -5.10492,4.181164 -7.873,10.131246 -7.873,16.923283 0,6.718874 2.739444,12.586406 7.895627,16.911405 2.383463,1.999245 8.088393,4.612515 10.538808,4.827536 0.132,0.01158 0.24,-0.919459 0.24,-2.068982 z M 1.8399999,34.214369 C 1.1882565,33.834762 1.0734483,32.014551 1.6639999,31.424001 2.3090633,30.778937 6.4523092,30.948827 8.4679955,31.702992 9.4425977,32.067639 10.24,32.49594 10.24,32.654775 c 0,1.185891 -6.8560945,2.458835 -8.4000001,1.559594 z M 6.5801978,33.22105 8.467136,32.842097 7.513568,32.435482 C 6.1393079,31.849478 2.5899566,31.869591 2.3616007,32.464662 1.9058891,33.65223 3.241093,33.891622 6.5801978,33.221037 Z M 15.437818,15.846788 C 13.148755,14.78625 10.56,12.330833 10.56,11.220211 c 0,-2.1353929 2.000615,-2.2203407 3.993728,-0.169577 1.518662,1.562587 3.273388,4.85025 2.826986,5.296652 -0.150827,0.150827 -1.020784,-0.07328 -1.942896,-0.500498 z m 0.05066,-1.979023 C 13.922241,11.340879 11.52,9.6897583 11.52,11.140131 c 0,0.652905 1.151146,1.827366 3.009824,3.070781 1.475345,0.986973 1.72722,0.896816 0.958654,-0.343147 z m 37.427446,1.152602 c 0.10776,-0.538799 0.714231,-1.760492 1.347712,-2.714873 2.128583,-3.2068448 4.056983,-4.1766951 5.109811,-2.5698771 0.460394,0.7026511 0.461556,0.8658241 0.01235,1.7345081 -0.585865,1.132939 -2.683657,2.899641 -4.573043,3.85129 -1.842214,0.927888 -2.133366,0.881679 -1.896822,-0.301048 z M 57.199998,12.376 c 1.32583,-1.276358 1.779696,-2.4559998 0.944944,-2.4559998 -0.67985,0 -3.744944,3.4722958 -3.744944,4.2424608 0,0.456012 1.395437,-0.434307 2.8,-1.786461 z M 34.438031,9.3535442 C 33.413919,7.3731339 32.969884,2.7864287 33.704956,1.7811615 34.262047,1.0192921 35.822127,1.0301882 36.402216,1.8 c 0.915424,1.2148142 -0.136461,8.44 -1.228745,8.44 -0.152371,0 -0.483319,-0.3989051 -0.73544,-0.8864558 z m 1.22648,-4.5535441 c 0.01414,-2.191829 -0.04003,-2.4 -0.624512,-2.4 -0.8488,0 -0.974845,1.008256 -0.476519,3.8117623 0.3292,1.8520426 0.449447,2.1122653 0.739344,1.6 0.19041,-0.3364694 0.353172,-1.6917623 0.361687,-3.0117623 z"
       id="path6214"
       inkscape:connector-curvature="0" />
    <path
       style="fill:#009529;stroke-width:0.31999999"
       d="m 52.226974,82.678677 0.09302,-2.838675 1.631325,-0.19912 c 5.534643,-0.675555 10.585171,-4.254029 13.042243,-9.24088 0.650377,-1.32 1.269728,-2.94 1.376336,-3.6 l 0.193833,-1.2 H 51.356248 34.148757 l 0.234791,-13.920001 c 0.129132,-7.656 0.13366,-13.92 0.01005,-13.92 -0.1236,0 -1.416727,0.72 -2.87361,1.6 -1.456885,0.88 -2.736883,1.6 -2.84444,1.6 -0.107558,0 -0.19075,-1.548 -0.184872,-3.44 l 0.01069,-3.44 13.243948,-7.27522 13.243949,-7.275219 13.065363,7.396795 c 7.185948,4.068237 13.240645,7.558511 13.454882,7.756165 0.517459,0.477415 0.952858,7.382273 0.483779,7.672177 -0.185475,0.11463 -1.710208,-0.584282 -3.388297,-1.55314 -1.678077,-0.968857 -3.130694,-1.761558 -3.228026,-1.761558 -0.09733,0 -0.176963,5.976 -0.176963,13.28 0,7.304 -0.121085,13.280001 -0.269078,13.280001 -0.147994,0 -0.45025,0.828 -0.671677,1.84 -2.062137,9.424585 -10.338275,16.827434 -19.952268,17.846915 l -2.173021,0.230432 z m 5.115606,0.985751 c 4.320781,-1.048458 8.682861,-3.83786 11.385098,-7.280385 2.238118,-2.85126 2.793062,-3.875398 3.941177,-7.273373 C 75.96521,59.35475 71.65114,48.434052 62.399998,43.115927 60.517569,42.03379 57.427182,41.014971 55.034699,40.687777 l -1.914701,-0.26185 v 2.172538 2.172534 l 1.2,0.201111 c 6.011075,1.007401 10.907062,4.56047 13.502979,9.799251 0.737933,1.489207 1.422601,3.310871 1.521491,4.048144 l 0.179798,1.340496 h -8.202134 -8.202134 v 2.24 2.240001 h 8.141113 c 5.074791,0 8.215504,0.120361 8.338614,0.319561 0.108628,0.17576 -0.02854,1.201853 -0.304793,2.280208 -1.760438,6.871664 -7.974726,12.515133 -14.654934,13.308791 l -1.52,0.180585 v 1.889927 1.88993 l 1.2,-0.201162 c 0.66,-0.110637 2.020163,-0.400173 3.022582,-0.643414 z M 52.013835,64.218795 c 0.102317,-0.407664 0.141062,-1.451664 0.0861,-2.32 l -0.09993,-1.578794 -6.56,-0.16 -6.559999,-0.16 -0.08007,-12.8 -0.08007,-12.8 7.777094,-4.08 c 4.277401,-2.244 7.890534,-4.08 8.029184,-4.08 0.138649,0 3.622329,1.908 7.741513,4.24 l 7.489424,4.24 0.0016,6.526877 0.0016,6.52688 1.193497,1.79312 c 0.656423,0.986218 1.662,2.945123 2.234618,4.353123 l 1.04112,2.56 0.0054,-9.341114 c 0.0029,-5.137612 0.113382,-9.406944 0.245382,-9.487398 0.132,-0.08046 1.68,0.687952 3.44,1.707574 l 3.2,1.853853 0.0932,-2.737258 c 0.05126,-1.505491 -0.02074,-2.850748 -0.16,-2.989462 -0.139261,-0.13871 -6.063475,-3.549689 -13.164918,-7.579953 L 54.976558,20.578489 42.20828,27.624907 29.439999,34.671326 v 2.344336 c 0,1.289385 0.06689,2.344339 0.14865,2.344339 0.08176,0 1.215993,-0.648 2.520524,-1.44 1.304531,-0.792 2.533639,-1.44 2.731351,-1.44 0.260582,0 0.359475,3.917514 0.359475,14.24 v 14.240001 h 8.313903 8.313904 z m 16.466163,-5.128698 c 0,-0.06045 -0.288631,-0.948822 -0.641402,-1.974166 -1.931485,-5.613962 -7.325635,-10.09626 -13.312425,-11.062032 l -2.366173,-0.381706 v -3.006138 c 0,-2.132947 0.117898,-3.051382 0.405882,-3.161891 0.629334,-0.241501 5.311155,0.67296 7.301699,1.426179 2.280483,0.862928 5.299279,2.691069 7.314671,4.429658 0.867088,0.748 1.657802,1.36 1.757136,1.36 0.09934,0 0.180611,-2.55944 0.180611,-5.687645 v -5.687645 l -7.279705,-4.122785 -7.279705,-4.122785 -3.840294,1.976468 c -2.112164,1.087057 -5.460295,2.844292 -7.440295,3.904968 l -3.599999,1.928499 v 12.145463 12.145462 h 14.399999 c 7.92,0 14.4,-0.04946 14.4,-0.109904 z m -57.280816,0.588919 c -0.844354,-1.017383 -0.468871,-2.15792 1.222393,-3.71304 1.795082,-1.650586 4.294281,-3.008135 5.023037,-2.728484 0.58256,0.223549 0.230977,1.152596 -1.37651,3.637383 -1.872997,2.8952 -3.848908,4.033181 -4.86892,2.804141 z m 2.628351,-1.359015 c 1.00281,-1.066726 2.492466,-3.257241 2.492466,-3.665129 0,-0.495124 -2.452559,1.048115 -3.706488,2.332256 -0.750637,0.768723 -1.109208,1.390406 -0.986454,1.710297 0.295114,0.769056 1.281786,0.599821 2.200476,-0.377424 z M 29.599999,56.485893 C 23.441891,54.823246 18.509721,51.125096 15.391281,45.832174 c -4.171135,-7.079658 -4.160904,-16.25359 0.02607,-23.373299 1.366374,-2.323442 5.678084,-6.635152 8.001525,-8.001526 7.615654,-4.4786278 17.452687,-4.115459 24.741125,0.913405 1.88072,1.297656 4.0004,3.344584 3.99729,3.860091 -0.0016,0.247035 -1.062487,1.013755 -2.35776,1.703821 l -2.35505,1.254667 -1.56224,-1.300833 c -8.482758,-7.063349 -21.124281,-4.304422 -25.98706,5.671501 -2.114431,4.337725 -2.39886,8.017917 -0.978686,12.663082 1.639108,5.36126 6.894808,10.176829 12.394159,11.35623 l 1.649348,0.353722 v 3.013481 3.013485 l -0.88,-0.02106 c -0.484,-0.01158 -1.6,-0.215456 -2.48,-0.453049 z M 32.25462,53.904417 32.16,51.80883 29.589454,50.944417 C 26.344856,49.853332 24.177349,48.462737 21.918713,46.02314 18.756815,42.607915 17.28,38.738523 17.28,33.869287 c 0,-8.252004 5.73553,-15.477995 13.792996,-17.377306 5.216642,-1.22967 11.415618,0.204473 15.261903,3.530867 l 1.1851,1.024914 1.910707,-0.96418 1.910708,-0.964181 -1.270708,-1.09501 c -4.947564,-4.263476 -10.313871,-6.158916 -16.302569,-5.758249 -5.616771,0.375783 -10.049246,2.400911 -14.117948,6.450269 -2.112242,2.102199 -2.865906,3.136801 -4.087047,5.610544 -3.28269,6.649951 -3.28269,13.17614 0,19.826092 2.631886,5.331578 7.733742,9.615015 13.396858,11.247789 1.056,0.304464 2.250579,0.563828 2.654621,0.576369 0.70294,0.02182 0.73054,-0.06757 0.64,-2.072788 z M 1.8399999,34.214369 C 1.1882565,33.834762 1.0734483,32.014551 1.6639999,31.424001 2.3090633,30.778937 6.4523092,30.948827 8.4679955,31.702992 9.4425977,32.067639 10.24,32.49594 10.24,32.654775 c 0,1.185891 -6.8560945,2.458835 -8.4000001,1.559594 z M 7.9018676,33.008551 C 8.4199869,32.71859 8.3803472,32.646234 7.5199997,32.311524 6.2021467,31.798825 2.6896254,31.742587 2.2056561,32.226439 c -0.3020395,0.301965 -0.2896142,0.503216 0.056843,0.920672 0.3666353,0.44177 0.8430066,0.50401 2.7523057,0.35961 1.269912,-0.09604 2.5690902,-0.320221 2.8870628,-0.49817 z M 15.437818,15.846788 C 13.148755,14.78625 10.56,12.330833 10.56,11.220211 c 0,-2.1353929 2.000615,-2.2203407 3.993728,-0.169577 1.518662,1.562587 3.273388,4.85025 2.826986,5.296652 -0.150827,0.150827 -1.020784,-0.07328 -1.942896,-0.500498 z m 0.562181,-1.071925 c 0,-0.569432 -2.030164,-3.289726 -2.937082,-3.935509 -0.881477,-0.627667 -0.998632,-0.640782 -1.474369,-0.165045 -0.475737,0.475737 -0.441781,0.596713 0.427325,1.522454 1.061183,1.130336 3.297552,2.843237 3.712139,2.843237 0.149593,0 0.271987,-0.119312 0.271987,-0.265137 z m 36.915925,0.245504 c 0.10776,-0.538799 0.714231,-1.760492 1.347712,-2.714873 2.128583,-3.2068448 4.056983,-4.1766951 5.109811,-2.5698771 0.460394,0.7026511 0.461556,0.8658241 0.01235,1.7345081 -0.585865,1.132939 -2.683657,2.899641 -4.573043,3.85129 -1.842214,0.927888 -2.133366,0.881679 -1.896822,-0.301048 z m 4.56457,-2.689698 C 59.029841,10.846131 59.171863,10.08 57.897707,10.08 c -0.569559,0 -1.164247,0.523408 -2.293335,2.018459 -0.838406,1.110152 -1.524374,2.15785 -1.524374,2.328217 0,0.526798 1.859184,-0.619171 3.400496,-2.096007 z M 34.438031,9.3535442 C 33.413919,7.3731339 32.969884,2.7864287 33.704956,1.7811615 34.262047,1.0192921 35.822127,1.0301882 36.402216,1.8 c 0.915424,1.2148142 -0.136461,8.44 -1.228745,8.44 -0.152371,0 -0.483319,-0.3989051 -0.73544,-0.8864558 z m 1.352912,-4.3632874 c 0.09445,-2.2627798 0.03066,-2.6888391 -0.428877,-2.8651844 -1.014125,-0.3891557 -1.213418,0.1200077 -1.033392,2.6401572 0.09566,1.3391238 0.277962,2.6964499 0.405117,3.01628 0.461229,1.1601303 0.945606,-0.1187933 1.057152,-2.7912528 z"
       id="path6212"
       inkscape:connector-curvature="0" />
    <path
       style="fill:#040403;stroke-width:0.31999999"
       d="m 52.226974,82.678677 0.09302,-2.838675 1.631325,-0.19912 c 5.534643,-0.675555 10.585171,-4.254029 13.042243,-9.24088 0.650377,-1.32 1.269728,-2.94 1.376336,-3.6 l 0.193833,-1.2 H 51.356248 34.148757 l 0.234791,-13.920001 c 0.129132,-7.656 0.13366,-13.92 0.01005,-13.92 -0.1236,0 -1.416727,0.72 -2.87361,1.6 -1.456885,0.88 -2.736883,1.6 -2.84444,1.6 -0.107558,0 -0.19075,-1.548 -0.184872,-3.44 l 0.01069,-3.44 13.243948,-7.27522 13.243949,-7.275219 13.065363,7.396795 c 7.185948,4.068237 13.240645,7.558511 13.454882,7.756165 0.517459,0.477415 0.952858,7.382273 0.483779,7.672177 -0.185475,0.11463 -1.710208,-0.584282 -3.388297,-1.55314 -1.678077,-0.968857 -3.130694,-1.761558 -3.228026,-1.761558 -0.09733,0 -0.176963,5.976 -0.176963,13.28 0,7.304 -0.121085,13.280001 -0.269078,13.280001 -0.147994,0 -0.45025,0.828 -0.671677,1.84 -2.062137,9.424585 -10.338275,16.827434 -19.952268,17.846915 l -2.173021,0.230432 z m 6.850704,0.557031 C 64.1721,81.489723 68.829646,77.47668 71.302001,72.702965 72.977892,69.467086 73.580007,67.338981 73.809636,63.840001 74.56802,52.284232 66.200692,42.079217 54.639998,40.460203 l -1.52,-0.212871 v 2.436336 2.436333 h 0.90192 c 0.496054,0 1.684054,0.232192 2.64,0.515981 5.753549,1.708038 10.241849,5.990266 12.109936,11.553923 1.089567,3.245018 1.790431,2.970112 -7.571856,2.969975 l -8.24,-1.19e-4 0.03366,2.320119 0.03366,2.320122 8.249088,0.08549 8.249084,0.08549 -0.20471,1.514509 c -0.289613,2.142633 -2.396563,6.337968 -4.16727,8.297808 -2.701427,2.989977 -6.647014,5.107667 -10.673507,5.728729 l -1.36,0.209773 v 1.920327 1.920326 l 1.68,-0.218227 c 0.924,-0.120026 2.848957,-0.618858 4.27768,-1.108518 z M 52.013835,64.218795 c 0.102317,-0.407664 0.141062,-1.451664 0.0861,-2.32 l -0.09993,-1.578794 -6.56,-0.16 -6.559999,-0.16 -0.08007,-12.8 -0.08007,-12.8 7.777094,-4.08 c 4.277401,-2.244 7.890534,-4.08 8.029184,-4.08 0.138649,0 3.622329,1.908 7.741513,4.24 l 7.489424,4.24 0.0016,6.526877 0.0016,6.52688 1.193497,1.79312 c 0.656423,0.986218 1.662,2.945123 2.234618,4.353123 l 1.04112,2.56 0.0054,-9.341114 c 0.0029,-5.137612 0.113382,-9.406944 0.245382,-9.487398 0.132,-0.08046 1.68,0.687952 3.44,1.707574 l 3.2,1.853853 0.0932,-2.737258 c 0.05126,-1.505491 -0.02074,-2.850748 -0.16,-2.989462 -0.139261,-0.13871 -6.063475,-3.549689 -13.164918,-7.579953 L 54.976558,20.578489 42.20828,27.624907 29.439999,34.671326 v 2.344336 c 0,1.289385 0.06689,2.344339 0.14865,2.344339 0.08176,0 1.215993,-0.648 2.520524,-1.44 1.304531,-0.792 2.533639,-1.44 2.731351,-1.44 0.260582,0 0.359475,3.917514 0.359475,14.24 v 14.240001 h 8.313903 8.313904 z m 16.466163,-5.128698 c 0,-0.06045 -0.288631,-0.948822 -0.641402,-1.974166 -1.931485,-5.613962 -7.325635,-10.09626 -13.312425,-11.062032 l -2.366173,-0.381706 v -3.006138 c 0,-2.132947 0.117898,-3.051382 0.405882,-3.161891 0.629334,-0.241501 5.311155,0.67296 7.301699,1.426179 2.280483,0.862928 5.299279,2.691069 7.314671,4.429658 0.867088,0.748 1.657802,1.36 1.757136,1.36 0.09934,0 0.180611,-2.55944 0.180611,-5.687645 v -5.687645 l -7.279705,-4.122785 -7.279705,-4.122785 -3.840294,1.976468 c -2.112164,1.087057 -5.460295,2.844292 -7.440295,3.904968 l -3.599999,1.928499 v 12.145463 12.145462 h 14.399999 c 7.92,0 14.4,-0.04946 14.4,-0.109904 z m -57.280816,0.588919 c -0.844354,-1.017383 -0.468871,-2.15792 1.222393,-3.71304 1.795082,-1.650586 4.294281,-3.008135 5.023037,-2.728484 0.58256,0.223549 0.230977,1.152596 -1.37651,3.637383 -1.872997,2.8952 -3.848908,4.033181 -4.86892,2.804141 z m 2.628351,-1.359015 c 1.00281,-1.066726 2.492466,-3.257241 2.492466,-3.665129 0,-0.495124 -2.452559,1.048115 -3.706488,2.332256 -0.750637,0.768723 -1.109208,1.390406 -0.986454,1.710297 0.295114,0.769056 1.281786,0.599821 2.200476,-0.377424 z M 29.599999,56.485893 C 23.441891,54.823246 18.509721,51.125096 15.391281,45.832174 c -4.171135,-7.079658 -4.160904,-16.25359 0.02607,-23.373299 1.366374,-2.323442 5.678084,-6.635152 8.001525,-8.001526 7.615654,-4.4786278 17.452687,-4.115459 24.741125,0.913405 1.88072,1.297656 4.0004,3.344584 3.99729,3.860091 -0.0016,0.247035 -1.062487,1.013755 -2.35776,1.703821 l -2.35505,1.254667 -1.56224,-1.300833 c -8.482758,-7.063349 -21.124281,-4.304422 -25.98706,5.671501 -2.114431,4.337725 -2.39886,8.017917 -0.978686,12.663082 1.639108,5.36126 6.894808,10.176829 12.394159,11.35623 l 1.649348,0.353722 v 3.013481 3.013485 l -0.88,-0.02106 c -0.484,-0.01158 -1.6,-0.215456 -2.48,-0.453049 z M 32.25462,53.904417 32.16,51.80883 29.589454,50.944417 C 26.344856,49.853332 24.177349,48.462737 21.918713,46.02314 18.756815,42.607915 17.28,38.738523 17.28,33.869287 c 0,-8.252004 5.73553,-15.477995 13.792996,-17.377306 5.216642,-1.22967 11.415618,0.204473 15.261903,3.530867 l 1.1851,1.024914 1.910707,-0.96418 1.910708,-0.964181 -1.270708,-1.09501 c -4.947564,-4.263476 -10.313871,-6.158916 -16.302569,-5.758249 -5.616771,0.375783 -10.049246,2.400911 -14.117948,6.450269 -2.112242,2.102199 -2.865906,3.136801 -4.087047,5.610544 -3.28269,6.649951 -3.28269,13.17614 0,19.826092 2.631886,5.331578 7.733742,9.615015 13.396858,11.247789 1.056,0.304464 2.250579,0.563828 2.654621,0.576369 0.70294,0.02182 0.73054,-0.06757 0.64,-2.072788 z M 1.8399999,34.214369 C 1.1882565,33.834762 1.0734483,32.014551 1.6639999,31.424001 2.3090633,30.778937 6.4523092,30.948827 8.4679955,31.702992 9.4425977,32.067639 10.24,32.49594 10.24,32.654775 c 0,1.185891 -6.8560945,2.458835 -8.4000001,1.559594 z M 7.9018676,33.008551 C 8.4199869,32.71859 8.3803472,32.646234 7.5199997,32.311524 6.2021467,31.798825 2.6896254,31.742587 2.2056561,32.226439 c -0.3020395,0.301965 -0.2896142,0.503216 0.056843,0.920672 0.3666353,0.44177 0.8430066,0.50401 2.7523057,0.35961 1.269912,-0.09604 2.5690902,-0.320221 2.8870628,-0.49817 z M 15.437818,15.846788 C 13.148755,14.78625 10.56,12.330833 10.56,11.220211 c 0,-2.1353929 2.000615,-2.2203407 3.993728,-0.169577 1.518662,1.562587 3.273388,4.85025 2.826986,5.296652 -0.150827,0.150827 -1.020784,-0.07328 -1.942896,-0.500498 z m 0.562181,-1.071925 c 0,-0.569432 -2.030164,-3.289726 -2.937082,-3.935509 -0.881477,-0.627667 -0.998632,-0.640782 -1.474369,-0.165045 -0.475737,0.475737 -0.441781,0.596713 0.427325,1.522454 1.061183,1.130336 3.297552,2.843237 3.712139,2.843237 0.149593,0 0.271987,-0.119312 0.271987,-0.265137 z m 36.915925,0.245504 c 0.10776,-0.538799 0.714231,-1.760492 1.347712,-2.714873 2.128583,-3.2068448 4.056983,-4.1766951 5.109811,-2.5698771 0.460394,0.7026511 0.461556,0.8658241 0.01235,1.7345081 -0.585865,1.132939 -2.683657,2.899641 -4.573043,3.85129 -1.842214,0.927888 -2.133366,0.881679 -1.896822,-0.301048 z m 4.56457,-2.689698 C 59.029841,10.846131 59.171863,10.08 57.897707,10.08 c -0.569559,0 -1.164247,0.523408 -2.293335,2.018459 -0.838406,1.110152 -1.524374,2.15785 -1.524374,2.328217 0,0.526798 1.859184,-0.619171 3.400496,-2.096007 z M 34.438031,9.3535442 C 33.413919,7.3731339 32.969884,2.7864287 33.704956,1.7811615 34.262047,1.0192921 35.822127,1.0301882 36.402216,1.8 c 0.915424,1.2148142 -0.136461,8.44 -1.228745,8.44 -0.152371,0 -0.483319,-0.3989051 -0.73544,-0.8864558 z m 1.352912,-4.3632874 c 0.09445,-2.2627798 0.03066,-2.6888391 -0.428877,-2.8651844 -1.014125,-0.3891557 -1.213418,0.1200077 -1.033392,2.6401572 0.09566,1.3391238 0.277962,2.6964499 0.405117,3.01628 0.461229,1.1601303 0.945606,-0.1187933 1.057152,-2.7912528 z"
       id="path6210"
       inkscape:connector-curvature="0" />
  </g>
</svg>
